# Blender 5.1.0
# www.blender.org
mtllib SkySphere.mtl
o SkySphere
v 0.000000 0.555570 0.831470
v 0.000000 0.831470 0.555570
v 0.000000 0.980785 0.195090
v 0.000000 1.000000 0.000000
v 0.000000 0.980785 -0.195090
v 0.000000 0.831470 -0.555570
v 0.038060 0.191342 0.980785
v 0.074658 0.375330 0.923880
v 0.108386 0.544895 0.831470
v 0.137950 0.693520 0.707107
v 0.162212 0.815493 0.555570
v 0.180240 0.906127 0.382683
v 0.191342 0.961940 0.195090
v 0.195090 0.980785 0.000000
v 0.191342 0.961940 -0.195090
v 0.180240 0.906127 -0.382683
v 0.162212 0.815493 -0.555570
v 0.137950 0.693520 -0.707107
v 0.108386 0.544895 -0.831470
v 0.074658 0.375330 -0.923880
v 0.038060 0.191342 -0.980785
v 0.074658 0.180240 0.980785
v 0.146447 0.353553 0.923880
v 0.212608 0.513280 0.831470
v 0.270598 0.653281 0.707107
v 0.318190 0.768178 0.555570
v 0.353553 0.853553 0.382683
v 0.375330 0.906127 0.195090
v 0.382683 0.923879 0.000000
v 0.375330 0.906127 -0.195090
v 0.353553 0.853553 -0.382683
v 0.318190 0.768178 -0.555570
v 0.270598 0.653281 -0.707107
v 0.212608 0.513280 -0.831470
v 0.146447 0.353553 -0.923880
v 0.074658 0.180240 -0.980785
v 0.108386 0.162212 0.980785
v 0.212608 0.318190 0.923880
v 0.308658 0.461940 0.831470
v 0.392847 0.587938 0.707107
v 0.461940 0.691342 0.555570
v 0.513280 0.768178 0.382683
v 0.544895 0.815493 0.195090
v 0.555570 0.831469 0.000000
v 0.544895 0.815493 -0.195090
v 0.513280 0.768178 -0.382683
v 0.461940 0.691342 -0.555570
v 0.392847 0.587938 -0.707107
v 0.308658 0.461940 -0.831470
v 0.212608 0.318190 -0.923880
v 0.108386 0.162212 -0.980785
v 0.137950 0.137950 0.980785
v 0.270598 0.270598 0.923880
v 0.392847 0.392847 0.831470
v 0.500000 0.500000 0.707107
v 0.587938 0.587938 0.555570
v 0.653281 0.653281 0.382683
v 0.693520 0.693520 0.195090
v 0.707107 0.707107 0.000000
v 0.693520 0.693520 -0.195090
v 0.653281 0.653281 -0.382683
v 0.587938 0.587938 -0.555570
v 0.500000 0.500000 -0.707107
v 0.392847 0.392847 -0.831470
v 0.270598 0.270598 -0.923880
v 0.137950 0.137950 -0.980785
v 0.162212 0.108386 0.980785
v 0.318190 0.212608 0.923880
v 0.461940 0.308658 0.831470
v 0.587938 0.392847 0.707107
v 0.691342 0.461940 0.555570
v 0.768178 0.513280 0.382683
v 0.815493 0.544895 0.195090
v 0.831470 0.555570 0.000000
v 0.815493 0.544895 -0.195090
v 0.768178 0.513280 -0.382683
v 0.691342 0.461940 -0.555570
v 0.587938 0.392847 -0.707107
v 0.461940 0.308658 -0.831470
v 0.318190 0.212608 -0.923880
v 0.162212 0.108386 -0.980785
v 0.000000 0.000000 1.000000
v 0.000000 0.000000 1.000000
v 0.000000 0.000000 1.000000
v 0.000000 0.000000 1.000000
v 0.000000 0.000000 1.000000
v 0.000000 0.000000 1.000000
v 0.000000 0.000000 1.000000
v 0.000000 0.000000 1.000000
v 0.000000 0.000000 1.000000
v 0.000000 0.000000 1.000000
v 0.000000 0.000000 1.000000
v 0.000000 0.000000 1.000000
v 0.000000 0.000000 1.000000
v 0.000000 0.000000 1.000000
v 0.000000 0.000000 1.000000
v 0.000000 0.000000 1.000000
v 0.000000 0.000000 1.000000
v 0.000000 0.000000 1.000000
v 0.000000 0.000000 1.000000
v 0.000000 0.000000 1.000000
v 0.000000 0.000000 1.000000
v 0.000000 0.000000 1.000000
v 0.000000 0.000000 1.000000
v 0.000000 0.000000 1.000000
v 0.000000 0.000000 1.000000
v 0.000000 0.000000 1.000000
v 0.000000 0.000000 1.000000
v 0.000000 0.000000 1.000000
v 0.000000 0.000000 1.000000
v 0.000000 0.000000 1.000000
v 0.000000 0.000000 1.000000
v 0.000000 0.000000 1.000000
v 0.180240 0.074658 0.980785
v 0.353553 0.146447 0.923880
v 0.513280 0.212607 0.831470
v 0.653281 0.270598 0.707107
v 0.768178 0.318190 0.555570
v 0.853553 0.353553 0.382683
v 0.906127 0.375330 0.195090
v 0.923879 0.382683 0.000000
v 0.906127 0.375330 -0.195090
v 0.853553 0.353553 -0.382683
v 0.768178 0.318190 -0.555570
v 0.653281 0.270598 -0.707107
v 0.513280 0.212607 -0.831470
v 0.353553 0.146447 -0.923880
v 0.180240 0.074658 -0.980785
v 0.191342 0.038060 0.980785
v 0.375330 0.074658 0.923880
v 0.544895 0.108386 0.831470
v 0.693520 0.137950 0.707107
v 0.815493 0.162212 0.555570
v 0.906127 0.180240 0.382683
v 0.961940 0.191342 0.195090
v 0.980785 0.195090 0.000000
v 0.961940 0.191342 -0.195090
v 0.906127 0.180240 -0.382683
v 0.815493 0.162212 -0.555570
v 0.693520 0.137950 -0.707107
v 0.544895 0.108386 -0.831470
v 0.375330 0.074658 -0.923880
v 0.191342 0.038060 -0.980785
v 0.195090 -0.000000 0.980785
v 0.382683 -0.000000 0.923880
v 0.555570 -0.000000 0.831470
v 0.707107 0.000000 0.707107
v 0.831469 -0.000000 0.555570
v 0.923879 0.000000 0.382683
v 0.980785 -0.000000 0.195090
v 1.000000 -0.000000 0.000000
v 0.980785 -0.000000 -0.195090
v 0.923879 0.000000 -0.382683
v 0.831469 -0.000000 -0.555570
v 0.707107 0.000000 -0.707107
v 0.555570 -0.000000 -0.831470
v 0.382683 -0.000000 -0.923880
v 0.195090 -0.000000 -0.980785
v 0.191342 -0.038060 0.980785
v 0.375330 -0.074658 0.923880
v 0.544895 -0.108386 0.831470
v 0.693520 -0.137950 0.707107
v 0.815493 -0.162212 0.555570
v 0.906127 -0.180240 0.382683
v 0.961940 -0.191342 0.195090
v 0.980785 -0.195090 0.000000
v 0.961940 -0.191342 -0.195090
v 0.906127 -0.180240 -0.382683
v 0.815493 -0.162212 -0.555570
v 0.693520 -0.137950 -0.707107
v 0.544895 -0.108386 -0.831470
v 0.375330 -0.074658 -0.923880
v 0.191342 -0.038060 -0.980785
v 0.180240 -0.074658 0.980785
v 0.353553 -0.146447 0.923880
v 0.513280 -0.212608 0.831470
v 0.653281 -0.270598 0.707107
v 0.768178 -0.318190 0.555570
v 0.853553 -0.353553 0.382683
v 0.906127 -0.375330 0.195090
v 0.923879 -0.382683 0.000000
v 0.906127 -0.375330 -0.195090
v 0.853553 -0.353553 -0.382683
v 0.768178 -0.318190 -0.555570
v 0.653281 -0.270598 -0.707107
v 0.513280 -0.212608 -0.831470
v 0.353553 -0.146447 -0.923880
v 0.180240 -0.074658 -0.980785
v 0.162212 -0.108386 0.980785
v 0.318190 -0.212608 0.923880
v 0.461940 -0.308658 0.831470
v 0.587938 -0.392847 0.707107
v 0.691341 -0.461940 0.555570
v 0.768178 -0.513280 0.382683
v 0.815493 -0.544895 0.195090
v 0.831469 -0.555570 0.000000
v 0.815493 -0.544895 -0.195090
v 0.768178 -0.513280 -0.382683
v 0.691341 -0.461940 -0.555570
v 0.587938 -0.392847 -0.707107
v 0.461940 -0.308658 -0.831470
v 0.318190 -0.212608 -0.923880
v 0.162212 -0.108386 -0.980785
v 0.137950 -0.137950 0.980785
v 0.270598 -0.270598 0.923880
v 0.392847 -0.392847 0.831470
v 0.500000 -0.500000 0.707107
v 0.587938 -0.587938 0.555570
v 0.653281 -0.653281 0.382683
v 0.693520 -0.693520 0.195090
v 0.707106 -0.707107 0.000000
v 0.693520 -0.693520 -0.195090
v 0.653281 -0.653281 -0.382683
v 0.587938 -0.587938 -0.555570
v 0.500000 -0.500000 -0.707107
v 0.392847 -0.392847 -0.831470
v 0.270598 -0.270598 -0.923880
v 0.137950 -0.137950 -0.980785
v 0.108386 -0.162212 0.980785
v 0.212607 -0.318190 0.923880
v 0.308658 -0.461940 0.831470
v 0.392847 -0.587938 0.707107
v 0.461940 -0.691342 0.555570
v 0.513280 -0.768178 0.382683
v 0.544895 -0.815493 0.195090
v 0.555570 -0.831469 0.000000
v 0.544895 -0.815493 -0.195090
v 0.513280 -0.768178 -0.382683
v 0.461940 -0.691342 -0.555570
v 0.392847 -0.587938 -0.707107
v 0.308658 -0.461940 -0.831470
v 0.212607 -0.318190 -0.923880
v 0.108386 -0.162212 -0.980785
v 0.074658 -0.180240 0.980785
v 0.146447 -0.353553 0.923880
v 0.212607 -0.513280 0.831470
v 0.270598 -0.653281 0.707107
v 0.318189 -0.768178 0.555570
v 0.353553 -0.853553 0.382683
v 0.375330 -0.906127 0.195090
v 0.382683 -0.923879 0.000000
v 0.375330 -0.906127 -0.195090
v 0.353553 -0.853553 -0.382683
v 0.318189 -0.768178 -0.555570
v 0.270598 -0.653281 -0.707107
v 0.212607 -0.513280 -0.831470
v 0.146447 -0.353553 -0.923880
v 0.074658 -0.180240 -0.980785
v 0.038060 -0.191342 0.980785
v 0.074658 -0.375330 0.923880
v 0.108386 -0.544895 0.831470
v 0.137950 -0.693520 0.707107
v 0.162212 -0.815493 0.555570
v 0.180240 -0.906127 0.382683
v 0.191342 -0.961939 0.195090
v 0.195090 -0.980785 0.000000
v 0.191342 -0.961939 -0.195090
v 0.180240 -0.906127 -0.382683
v 0.162212 -0.815493 -0.555570
v 0.137950 -0.693520 -0.707107
v 0.108386 -0.544895 -0.831470
v 0.074658 -0.375330 -0.923880
v 0.038060 -0.191342 -0.980785
v -0.000000 -0.195090 0.980785
v -0.000000 -0.382683 0.923880
v -0.000000 -0.555570 0.831470
v -0.000000 -0.707107 0.707107
v -0.000000 -0.831469 0.555570
v 0.000000 -0.923879 0.382683
v -0.000000 -0.980785 0.195090
v -0.000000 -0.999999 0.000000
v -0.000000 -0.980785 -0.195090
v 0.000000 -0.923879 -0.382683
v -0.000000 -0.831469 -0.555570
v -0.000000 -0.707107 -0.707107
v -0.000000 -0.555570 -0.831470
v -0.000000 -0.382683 -0.923880
v -0.000000 -0.195090 -0.980785
v -0.038060 -0.191342 0.980785
v -0.074658 -0.375330 0.923880
v -0.108386 -0.544895 0.831470
v -0.137950 -0.693520 0.707107
v -0.162212 -0.815493 0.555570
v -0.180240 -0.906127 0.382683
v -0.191342 -0.961939 0.195090
v -0.195091 -0.980785 0.000000
v -0.191342 -0.961939 -0.195090
v -0.180240 -0.906127 -0.382683
v -0.162212 -0.815493 -0.555570
v -0.137950 -0.693520 -0.707107
v -0.108386 -0.544895 -0.831470
v -0.074658 -0.375330 -0.923880
v -0.038060 -0.191342 -0.980785
v -0.074658 -0.180240 0.980785
v -0.146447 -0.353553 0.923880
v -0.212608 -0.513280 0.831470
v -0.270598 -0.653281 0.707107
v -0.318190 -0.768177 0.555570
v -0.353553 -0.853553 0.382683
v -0.375330 -0.906127 0.195090
v -0.382683 -0.923879 0.000000
v -0.375330 -0.906127 -0.195090
v -0.353553 -0.853553 -0.382683
v -0.318190 -0.768177 -0.555570
v -0.270598 -0.653281 -0.707107
v -0.212608 -0.513280 -0.831470
v -0.146447 -0.353553 -0.923880
v -0.074658 -0.180240 -0.980785
v -0.108386 -0.162212 0.980785
v -0.212608 -0.318190 0.923880
v -0.308658 -0.461939 0.831470
v -0.392847 -0.587938 0.707107
v -0.461940 -0.691341 0.555570
v -0.513280 -0.768178 0.382683
v -0.544895 -0.815493 0.195090
v -0.555570 -0.831469 0.000000
v -0.544895 -0.815493 -0.195090
v -0.513280 -0.768178 -0.382683
v -0.461940 -0.691341 -0.555570
v -0.392847 -0.587938 -0.707107
v -0.308658 -0.461939 -0.831470
v -0.212608 -0.318190 -0.923880
v -0.108386 -0.162212 -0.980785
v -0.137950 -0.137950 0.980785
v -0.270598 -0.270598 0.923880
v -0.392847 -0.392847 0.831470
v -0.500000 -0.500000 0.707107
v -0.587938 -0.587937 0.555570
v -0.653281 -0.653281 0.382683
v -0.693520 -0.693520 0.195090
v -0.707106 -0.707106 0.000000
v -0.693520 -0.693520 -0.195090
v -0.653281 -0.653281 -0.382683
v -0.587938 -0.587937 -0.555570
v -0.500000 -0.500000 -0.707107
v -0.392847 -0.392847 -0.831470
v -0.270598 -0.270598 -0.923880
v -0.137950 -0.137950 -0.980785
v 0.000000 0.000000 -1.000000
v 0.000000 0.000000 -1.000000
v 0.000000 0.000000 -1.000000
v 0.000000 0.000000 -1.000000
v 0.000000 0.000000 -1.000000
v 0.000000 0.000000 -1.000000
v 0.000000 0.000000 -1.000000
v 0.000000 0.000000 -1.000000
v 0.000000 0.000000 -1.000000
v 0.000000 0.000000 -1.000000
v 0.000000 0.000000 -1.000000
v 0.000000 0.000000 -1.000000
v 0.000000 0.000000 -1.000000
v 0.000000 0.000000 -1.000000
v 0.000000 0.000000 -1.000000
v 0.000000 0.000000 -1.000000
v 0.000000 0.000000 -1.000000
v 0.000000 0.000000 -1.000000
v 0.000000 0.000000 -1.000000
v 0.000000 0.000000 -1.000000
v 0.000000 0.000000 -1.000000
v 0.000000 0.000000 -1.000000
v 0.000000 0.000000 -1.000000
v 0.000000 0.000000 -1.000000
v 0.000000 0.000000 -1.000000
v 0.000000 0.000000 -1.000000
v 0.000000 0.000000 -1.000000
v 0.000000 0.000000 -1.000000
v 0.000000 0.000000 -1.000000
v 0.000000 0.000000 -1.000000
v 0.000000 0.000000 -1.000000
v 0.000000 0.000000 -1.000000
v -0.162212 -0.108386 0.980785
v -0.318190 -0.212607 0.923880
v -0.461940 -0.308658 0.831470
v -0.587938 -0.392847 0.707107
v -0.691341 -0.461939 0.555570
v -0.768177 -0.513280 0.382683
v -0.815493 -0.544895 0.195090
v -0.831469 -0.555569 0.000000
v -0.815493 -0.544895 -0.195090
v -0.768177 -0.513280 -0.382683
v -0.691341 -0.461939 -0.555570
v -0.587938 -0.392847 -0.707107
v -0.461940 -0.308658 -0.831470
v -0.318190 -0.212607 -0.923880
v -0.162212 -0.108386 -0.980785
v -0.180240 -0.074658 0.980785
v -0.353553 -0.146447 0.923880
v -0.513280 -0.212607 0.831470
v -0.653281 -0.270598 0.707107
v -0.768177 -0.318189 0.555570
v -0.853553 -0.353553 0.382683
v -0.906127 -0.375330 0.195090
v -0.923879 -0.382683 0.000000
v -0.906127 -0.375330 -0.195090
v -0.853553 -0.353553 -0.382683
v -0.768177 -0.318189 -0.555570
v -0.653281 -0.270598 -0.707107
v -0.513280 -0.212607 -0.831470
v -0.353553 -0.146447 -0.923880
v -0.180240 -0.074658 -0.980785
v -0.191342 -0.038060 0.980785
v -0.375330 -0.074658 0.923880
v -0.544895 -0.108386 0.831470
v -0.693520 -0.137950 0.707107
v -0.815493 -0.162211 0.555570
v -0.906127 -0.180240 0.382683
v -0.961939 -0.191341 0.195090
v -0.980784 -0.195090 0.000000
v -0.961939 -0.191341 -0.195090
v -0.906127 -0.180240 -0.382683
v -0.815493 -0.162211 -0.555570
v -0.693520 -0.137950 -0.707107
v -0.544895 -0.108386 -0.831470
v -0.375330 -0.074658 -0.923880
v -0.191342 -0.038060 -0.980785
v -0.195090 0.000000 0.980785
v -0.195090 0.000000 0.980785
v -0.382683 0.000000 0.923880
v -0.382683 0.000000 0.923880
v -0.555570 0.000000 0.831470
v -0.555570 0.000000 0.831470
v -0.707107 0.000000 0.707107
v -0.707107 0.000000 0.707107
v -0.831469 0.000000 0.555570
v -0.831469 0.000000 0.555570
v -0.923879 0.000000 0.382683
v -0.923879 0.000000 0.382683
v -0.980785 0.000000 0.195090
v -0.980785 0.000000 0.195090
v -0.999999 0.000000 0.000000
v -0.999999 0.000000 0.000000
v -0.980785 0.000000 -0.195090
v -0.980785 0.000000 -0.195090
v -0.923879 0.000000 -0.382683
v -0.923879 0.000000 -0.382683
v -0.831469 0.000000 -0.555570
v -0.831469 0.000000 -0.555570
v -0.707107 0.000000 -0.707107
v -0.707107 0.000000 -0.707107
v -0.555570 0.000000 -0.831470
v -0.555570 0.000000 -0.831470
v -0.382683 0.000000 -0.923880
v -0.382683 0.000000 -0.923880
v -0.195090 0.000000 -0.980785
v -0.195090 0.000000 -0.980785
v -0.191342 0.038060 0.980785
v -0.375330 0.074658 0.923880
v -0.544895 0.108386 0.831470
v -0.693520 0.137950 0.707107
v -0.815493 0.162212 0.555570
v -0.906127 0.180240 0.382683
v -0.961939 0.191342 0.195090
v -0.980784 0.195091 0.000000
v -0.961939 0.191342 -0.195090
v -0.906127 0.180240 -0.382683
v -0.815493 0.162212 -0.555570
v -0.693520 0.137950 -0.707107
v -0.544895 0.108386 -0.831470
v -0.375330 0.074658 -0.923880
v -0.191342 0.038060 -0.980785
v -0.180240 0.074658 0.980785
v -0.353553 0.146447 0.923880
v -0.513279 0.212607 0.831470
v -0.653281 0.270598 0.707107
v -0.768177 0.318190 0.555570
v -0.853553 0.353553 0.382683
v -0.906127 0.375330 0.195090
v -0.923878 0.382683 0.000000
v -0.906127 0.375330 -0.195090
v -0.853553 0.353553 -0.382683
v -0.768177 0.318190 -0.555570
v -0.653281 0.270598 -0.707107
v -0.513279 0.212607 -0.831470
v -0.353553 0.146447 -0.923880
v -0.180240 0.074658 -0.980785
v -0.162212 0.108386 0.980785
v -0.318189 0.212607 0.923880
v -0.461939 0.308658 0.831470
v -0.587938 0.392847 0.707107
v -0.691341 0.461940 0.555570
v -0.768177 0.513280 0.382683
v -0.815493 0.544895 0.195090
v -0.831468 0.555570 0.000000
v -0.815493 0.544895 -0.195090
v -0.768177 0.513280 -0.382683
v -0.691341 0.461940 -0.555570
v -0.587938 0.392847 -0.707107
v -0.461939 0.308658 -0.831470
v -0.318189 0.212607 -0.923880
v -0.162212 0.108386 -0.980785
v -0.137950 0.137950 0.980785
v -0.270598 0.270598 0.923880
v -0.392847 0.392847 0.831470
v -0.500000 0.500000 0.707107
v -0.587937 0.587938 0.555570
v -0.653281 0.653281 0.382683
v -0.693519 0.693520 0.195090
v -0.707106 0.707106 0.000000
v -0.693519 0.693520 -0.195090
v -0.653281 0.653281 -0.382683
v -0.587937 0.587938 -0.555570
v -0.500000 0.500000 -0.707107
v -0.392847 0.392847 -0.831470
v -0.270598 0.270598 -0.923880
v -0.137950 0.137950 -0.980785
v -0.108386 0.162212 0.980785
v -0.212607 0.318190 0.923880
v -0.308658 0.461939 0.831470
v -0.392847 0.587938 0.707107
v -0.461939 0.691341 0.555570
v -0.513280 0.768177 0.382683
v -0.544895 0.815493 0.195090
v -0.555569 0.831469 0.000000
v -0.544895 0.815493 -0.195090
v -0.513280 0.768177 -0.382683
v -0.461939 0.691341 -0.555570
v -0.392847 0.587938 -0.707107
v -0.308658 0.461939 -0.831470
v -0.212607 0.318190 -0.923880
v -0.108386 0.162212 -0.980785
v -0.074658 0.180240 0.980785
v -0.146446 0.353553 0.923880
v -0.212607 0.513279 0.831470
v -0.270598 0.653281 0.707107
v -0.318189 0.768177 0.555570
v -0.353553 0.853553 0.382683
v -0.375330 0.906127 0.195090
v -0.382683 0.923879 0.000000
v -0.375330 0.906127 -0.195090
v -0.353553 0.853553 -0.382683
v -0.318189 0.768177 -0.555570
v -0.270598 0.653281 -0.707107
v -0.212607 0.513279 -0.831470
v -0.146446 0.353553 -0.923880
v -0.074658 0.180240 -0.980785
v -0.038060 0.191342 0.980785
v -0.074658 0.375330 0.923880
v -0.108386 0.544895 0.831470
v -0.137950 0.693520 0.707107
v -0.162211 0.815493 0.555570
v -0.180240 0.906127 0.382683
v -0.191341 0.961939 0.195090
v -0.195090 0.980784 0.000000
v -0.191341 0.961939 -0.195090
v -0.180240 0.906127 -0.382683
v -0.162211 0.815493 -0.555570
v -0.137950 0.693520 -0.707107
v -0.108386 0.544895 -0.831470
v -0.074658 0.375330 -0.923880
v -0.038060 0.191342 -0.980785
v 0.000000 0.195090 0.980785
v 0.000000 0.382683 0.923880
v 0.000000 0.707107 0.707107
v 0.000000 0.923879 0.382683
v 0.000000 0.923879 -0.382683
v 0.000000 0.707107 -0.707107
v 0.000000 0.555570 -0.831470
v 0.000000 0.382683 -0.923880
v 0.000000 0.195090 -0.980785
vn -0.0000 -0.0000 -1.0000
vn -0.0000 0.2010 -0.9796
vn 0.0392 0.1971 -0.9796
vn -0.0000 0.9810 -0.1939
vn -0.0000 1.0000 -0.0000
vn 0.1951 0.9808 -0.0000
vn 0.1914 0.9622 -0.1939
vn -0.0000 0.3879 0.9217
vn -0.0000 0.2010 0.9796
vn 0.0392 0.1971 0.9796
vn 0.0757 0.3804 0.9217
vn -0.0000 0.9248 -0.3805
vn 0.1804 0.9070 -0.3805
vn -0.0000 0.5598 0.8286
vn 0.1092 0.5490 0.8286
vn -0.0000 0.8333 -0.5528
vn 0.1626 0.8173 -0.5528
vn -0.0000 0.7101 0.7041
vn 0.1385 0.6965 0.7041
vn -0.0000 0.7101 -0.7041
vn 0.1385 0.6965 -0.7041
vn -0.0000 0.8333 0.5528
vn 0.1626 0.8173 0.5528
vn -0.0000 0.5598 -0.8286
vn 0.1092 0.5490 -0.8286
vn -0.0000 0.9248 0.3805
vn 0.1804 0.9070 0.3805
vn -0.0000 0.3879 -0.9217
vn 0.0757 0.3804 -0.9217
vn -0.0000 0.9810 0.1939
vn 0.1914 0.9622 0.1939
vn -0.0000 -0.0000 1.0000
vn 0.1484 0.3584 -0.9217
vn 0.0769 0.1857 -0.9796
vn 0.3754 0.9063 0.1939
vn 0.3827 0.9239 -0.0000
vn 0.0769 0.1857 0.9796
vn 0.3754 0.9063 -0.1939
vn 0.1484 0.3584 0.9217
vn 0.3539 0.8544 -0.3805
vn 0.2142 0.5172 0.8286
vn 0.3189 0.7699 -0.5528
vn 0.2718 0.6561 0.7041
vn 0.2718 0.6561 -0.7041
vn 0.3189 0.7699 0.5528
vn 0.2142 0.5172 -0.8286
vn 0.3539 0.8544 0.3805
vn 0.3110 0.4654 0.8286
vn 0.3945 0.5905 0.7041
vn 0.4630 0.6929 -0.5528
vn 0.3945 0.5905 -0.7041
vn 0.4630 0.6929 0.5528
vn 0.3110 0.4654 -0.8286
vn 0.5138 0.7689 0.3805
vn 0.2155 0.3225 -0.9217
vn 0.5450 0.8157 0.1939
vn 0.1117 0.1671 -0.9796
vn 0.5556 0.8315 -0.0000
vn 0.1117 0.1671 0.9796
vn 0.5450 0.8157 -0.1939
vn 0.2155 0.3225 0.9217
vn 0.5138 0.7689 -0.3805
vn 0.6937 0.6937 0.1939
vn 0.7071 0.7071 -0.0000
vn 0.1421 0.1421 0.9796
vn 0.1421 0.1421 -0.9796
vn 0.6937 0.6937 -0.1939
vn 0.2743 0.2743 0.9217
vn 0.6539 0.6539 -0.3805
vn 0.3958 0.3958 0.8286
vn 0.5893 0.5893 -0.5528
vn 0.5021 0.5021 0.7041
vn 0.5021 0.5021 -0.7041
vn 0.5893 0.5893 0.5528
vn 0.3958 0.3958 -0.8286
vn 0.6539 0.6539 0.3805
vn 0.2743 0.2743 -0.9217
vn 0.6929 0.4630 -0.5528
vn 0.5905 0.3945 -0.7041
vn 0.5905 0.3945 0.7041
vn 0.6929 0.4630 0.5528
vn 0.4654 0.3110 -0.8286
vn 0.7689 0.5138 0.3805
vn 0.3225 0.2155 -0.9217
vn 0.8157 0.5450 0.1939
vn 0.1671 0.1117 -0.9796
vn 0.8315 0.5556 -0.0000
vn 0.1671 0.1117 0.9796
vn 0.8157 0.5450 -0.1939
vn 0.3225 0.2155 0.9217
vn 0.7689 0.5138 -0.3805
vn 0.4654 0.3110 0.8286
vn 0.1857 0.0769 -0.9796
vn 0.9239 0.3827 -0.0000
vn 0.9063 0.3754 -0.1939
vn 0.1857 0.0769 0.9796
vn 0.3584 0.1484 0.9217
vn 0.8544 0.3539 -0.3805
vn 0.5172 0.2142 0.8286
vn 0.7699 0.3189 -0.5528
vn 0.6561 0.2718 0.7041
vn 0.6561 0.2718 -0.7041
vn 0.7699 0.3189 0.5528
vn 0.5172 0.2142 -0.8286
vn 0.8544 0.3539 0.3805
vn 0.3584 0.1484 -0.9217
vn 0.9063 0.3754 0.1939
vn 0.6965 0.1385 -0.7041
vn 0.5490 0.1092 -0.8286
vn 0.8173 0.1626 0.5528
vn 0.9070 0.1804 0.3805
vn 0.3804 0.0757 -0.9217
vn 0.9622 0.1914 0.1939
vn 0.1971 0.0392 -0.9796
vn 0.9808 0.1951 -0.0000
vn 0.1971 0.0392 0.9796
vn 0.9622 0.1914 -0.1939
vn 0.3804 0.0757 0.9217
vn 0.9070 0.1804 -0.3805
vn 0.5490 0.1092 0.8286
vn 0.8173 0.1626 -0.5528
vn 0.6965 0.1385 0.7041
vn 0.2010 -0.0000 0.9796
vn 0.3879 -0.0000 0.9217
vn 0.9810 -0.0000 -0.1939
vn 0.9248 -0.0000 -0.3805
vn 0.5598 -0.0000 0.8286
vn 0.8333 -0.0000 -0.5528
vn 0.7101 -0.0000 0.7041
vn 0.7101 -0.0000 -0.7041
vn 0.8333 -0.0000 0.5528
vn 0.5598 -0.0000 -0.8286
vn 0.9248 -0.0000 0.3805
vn 0.3879 -0.0000 -0.9217
vn 0.9810 -0.0000 0.1939
vn 0.2010 -0.0000 -0.9796
vn 1.0000 -0.0000 -0.0000
vn 0.8173 -0.1626 0.5528
vn 0.9070 -0.1804 0.3805
vn 0.5490 -0.1092 -0.8286
vn 0.3804 -0.0757 -0.9217
vn 0.9622 -0.1914 0.1939
vn 0.1971 -0.0392 -0.9796
vn 0.9808 -0.1951 -0.0000
vn 0.1971 -0.0392 0.9796
vn 0.9622 -0.1914 -0.1939
vn 0.3804 -0.0757 0.9217
vn 0.9070 -0.1804 -0.3805
vn 0.5490 -0.1092 0.8286
vn 0.8173 -0.1626 -0.5528
vn 0.6965 -0.1385 0.7041
vn 0.6965 -0.1385 -0.7041
vn 0.9063 -0.3754 -0.1939
vn 0.8544 -0.3539 -0.3805
vn 0.3584 -0.1484 0.9217
vn 0.5172 -0.2142 0.8286
vn 0.7699 -0.3189 -0.5528
vn 0.6561 -0.2718 0.7041
vn 0.6561 -0.2718 -0.7041
vn 0.7699 -0.3189 0.5528
vn 0.5172 -0.2142 -0.8286
vn 0.8544 -0.3539 0.3805
vn 0.3584 -0.1484 -0.9217
vn 0.9063 -0.3754 0.1939
vn 0.1857 -0.0769 -0.9796
vn 0.9239 -0.3827 -0.0000
vn 0.1857 -0.0769 0.9796
vn 0.4654 -0.3110 -0.8286
vn 0.3225 -0.2155 -0.9217
vn 0.7689 -0.5138 0.3805
vn 0.8157 -0.5450 0.1939
vn 0.1671 -0.1117 -0.9796
vn 0.8315 -0.5556 -0.0000
vn 0.1671 -0.1117 0.9796
vn 0.8157 -0.5450 -0.1939
vn 0.3225 -0.2155 0.9217
vn 0.7689 -0.5138 -0.3805
vn 0.4654 -0.3110 0.8286
vn 0.6929 -0.4630 -0.5528
vn 0.5905 -0.3945 0.7041
vn 0.5905 -0.3945 -0.7041
vn 0.6929 -0.4630 0.5528
vn 0.2743 -0.2743 0.9217
vn 0.3958 -0.3958 0.8286
vn 0.6539 -0.6539 -0.3805
vn 0.5893 -0.5893 -0.5528
vn 0.5021 -0.5021 0.7041
vn 0.5021 -0.5021 -0.7041
vn 0.5893 -0.5893 0.5528
vn 0.3958 -0.3958 -0.8286
vn 0.6539 -0.6539 0.3805
vn 0.2743 -0.2743 -0.9217
vn 0.6937 -0.6937 0.1939
vn 0.1421 -0.1421 -0.9796
vn 0.7071 -0.7071 -0.0000
vn 0.1421 -0.1421 0.9796
vn 0.6937 -0.6937 -0.1939
vn 0.5138 -0.7689 0.3805
vn 0.5450 -0.8157 0.1939
vn 0.2155 -0.3225 -0.9217
vn 0.1117 -0.1671 -0.9796
vn 0.5556 -0.8315 -0.0000
vn 0.1117 -0.1671 0.9796
vn 0.5450 -0.8157 -0.1939
vn 0.2155 -0.3225 0.9217
vn 0.5138 -0.7689 -0.3805
vn 0.3110 -0.4654 0.8286
vn 0.4630 -0.6929 -0.5528
vn 0.3945 -0.5905 0.7041
vn 0.3945 -0.5905 -0.7041
vn 0.4630 -0.6929 0.5528
vn 0.3110 -0.4654 -0.8286
vn 0.3539 -0.8544 -0.3805
vn 0.3189 -0.7699 -0.5528
vn 0.2142 -0.5172 0.8286
vn 0.2718 -0.6561 0.7041
vn 0.2718 -0.6561 -0.7041
vn 0.3189 -0.7699 0.5528
vn 0.2142 -0.5172 -0.8286
vn 0.3539 -0.8544 0.3805
vn 0.1484 -0.3584 -0.9217
vn 0.3754 -0.9063 0.1939
vn 0.0769 -0.1857 -0.9796
vn 0.3827 -0.9239 -0.0000
vn 0.0769 -0.1857 0.9796
vn 0.3754 -0.9063 -0.1939
vn 0.1484 -0.3584 0.9217
vn 0.0757 -0.3804 -0.9217
vn 0.0392 -0.1971 -0.9796
vn 0.1914 -0.9622 0.1939
vn 0.1951 -0.9808 -0.0000
vn 0.0392 -0.1971 0.9796
vn 0.1914 -0.9622 -0.1939
vn 0.0757 -0.3804 0.9217
vn 0.1804 -0.9070 -0.3805
vn 0.1092 -0.5490 0.8286
vn 0.1626 -0.8173 -0.5528
vn 0.1385 -0.6965 0.7041
vn 0.1385 -0.6965 -0.7041
vn 0.1626 -0.8173 0.5528
vn 0.1092 -0.5490 -0.8286
vn 0.1804 -0.9070 0.3805
vn -0.0000 -0.8333 -0.5528
vn -0.0000 -0.7101 -0.7041
vn -0.0000 -0.7101 0.7041
vn -0.0000 -0.8333 0.5528
vn -0.0000 -0.5598 -0.8286
vn -0.0000 -0.9248 0.3805
vn -0.0000 -0.3879 -0.9217
vn -0.0000 -0.9810 0.1939
vn -0.0000 -0.2010 -0.9796
vn -0.0000 -1.0000 -0.0000
vn -0.0000 -0.2010 0.9796
vn -0.0000 -0.9810 -0.1939
vn -0.0000 -0.3879 0.9217
vn -0.0000 -0.9248 -0.3805
vn -0.0000 -0.5598 0.8286
vn -0.0392 -0.1971 0.9796
vn -0.0392 -0.1971 -0.9796
vn -0.1951 -0.9808 -0.0000
vn -0.1914 -0.9622 -0.1939
vn -0.0757 -0.3804 0.9217
vn -0.1804 -0.9070 -0.3805
vn -0.1092 -0.5490 0.8286
vn -0.1626 -0.8173 -0.5528
vn -0.1385 -0.6965 0.7041
vn -0.1385 -0.6965 -0.7041
vn -0.1626 -0.8173 0.5528
vn -0.1092 -0.5490 -0.8286
vn -0.1804 -0.9070 0.3805
vn -0.0757 -0.3804 -0.9217
vn -0.1914 -0.9622 0.1939
vn -0.2718 -0.6561 0.7041
vn -0.3189 -0.7699 0.5528
vn -0.2718 -0.6561 -0.7041
vn -0.2142 -0.5172 -0.8286
vn -0.3539 -0.8544 0.3805
vn -0.1484 -0.3584 -0.9217
vn -0.3754 -0.9063 0.1939
vn -0.0769 -0.1857 -0.9796
vn -0.3827 -0.9239 -0.0000
vn -0.0769 -0.1857 0.9796
vn -0.3754 -0.9063 -0.1939
vn -0.1484 -0.3584 0.9217
vn -0.3539 -0.8544 -0.3805
vn -0.2142 -0.5172 0.8286
vn -0.3189 -0.7699 -0.5528
vn -0.5556 -0.8315 -0.0000
vn -0.5450 -0.8157 -0.1939
vn -0.1117 -0.1671 0.9796
vn -0.2155 -0.3225 0.9217
vn -0.5138 -0.7689 -0.3805
vn -0.3110 -0.4654 0.8286
vn -0.4630 -0.6929 -0.5528
vn -0.3945 -0.5905 0.7041
vn -0.3945 -0.5905 -0.7041
vn -0.4630 -0.6929 0.5528
vn -0.3110 -0.4654 -0.8286
vn -0.5138 -0.7689 0.3805
vn -0.2155 -0.3225 -0.9217
vn -0.5450 -0.8157 0.1939
vn -0.1117 -0.1671 -0.9796
vn -0.5021 -0.5021 -0.7041
vn -0.3958 -0.3958 -0.8286
vn -0.5893 -0.5893 0.5528
vn -0.6539 -0.6539 0.3805
vn -0.2743 -0.2743 -0.9217
vn -0.6937 -0.6937 0.1939
vn -0.1421 -0.1421 -0.9796
vn -0.7071 -0.7071 -0.0000
vn -0.1421 -0.1421 0.9796
vn -0.6937 -0.6937 -0.1939
vn -0.2743 -0.2743 0.9217
vn -0.6539 -0.6539 -0.3805
vn -0.3958 -0.3958 0.8286
vn -0.5893 -0.5893 -0.5528
vn -0.5021 -0.5021 0.7041
vn -0.1671 -0.1117 0.9796
vn -0.3225 -0.2155 0.9217
vn -0.8157 -0.5450 -0.1939
vn -0.7689 -0.5138 -0.3805
vn -0.4654 -0.3110 0.8286
vn -0.6929 -0.4630 -0.5528
vn -0.5905 -0.3945 0.7041
vn -0.5905 -0.3945 -0.7041
vn -0.6929 -0.4630 0.5528
vn -0.4654 -0.3110 -0.8286
vn -0.7689 -0.5138 0.3805
vn -0.3225 -0.2155 -0.9217
vn -0.8157 -0.5450 0.1939
vn -0.1671 -0.1117 -0.9796
vn -0.8315 -0.5556 -0.0000
vn -0.7699 -0.3189 0.5528
vn -0.8544 -0.3539 0.3805
vn -0.5172 -0.2142 -0.8286
vn -0.3584 -0.1484 -0.9217
vn -0.9063 -0.3754 0.1939
vn -0.1857 -0.0769 -0.9796
vn -0.9239 -0.3827 -0.0000
vn -0.1857 -0.0769 0.9796
vn -0.9063 -0.3754 -0.1939
vn -0.3584 -0.1484 0.9217
vn -0.8544 -0.3539 -0.3805
vn -0.5172 -0.2142 0.8286
vn -0.7699 -0.3189 -0.5528
vn -0.6561 -0.2718 0.7041
vn -0.6561 -0.2718 -0.7041
vn -0.9622 -0.1914 -0.1939
vn -0.9070 -0.1804 -0.3805
vn -0.3804 -0.0757 0.9217
vn -0.5490 -0.1092 0.8286
vn -0.8173 -0.1626 -0.5528
vn -0.6965 -0.1385 0.7041
vn -0.6965 -0.1385 -0.7041
vn -0.8173 -0.1626 0.5528
vn -0.5490 -0.1092 -0.8286
vn -0.9070 -0.1804 0.3805
vn -0.3804 -0.0757 -0.9217
vn -0.9622 -0.1914 0.1939
vn -0.1971 -0.0392 -0.9796
vn -0.9808 -0.1951 -0.0000
vn -0.1971 -0.0392 0.9796
vn -0.5598 -0.0000 -0.8286
vn -0.3879 -0.0000 -0.9217
vn -0.9248 -0.0000 0.3805
vn -0.9810 -0.0000 0.1939
vn -0.2010 -0.0000 -0.9796
vn -1.0000 -0.0000 -0.0000
vn -0.2010 -0.0000 0.9796
vn -0.9810 -0.0000 -0.1939
vn -0.3879 -0.0000 0.9217
vn -0.9248 -0.0000 -0.3805
vn -0.5598 -0.0000 0.8286
vn -0.8333 -0.0000 -0.5528
vn -0.7101 -0.0000 0.7041
vn -0.7101 -0.0000 -0.7041
vn -0.8333 -0.0000 0.5528
vn -0.9070 0.1804 -0.3805
vn -0.8173 0.1626 -0.5528
vn -0.5490 0.1092 0.8286
vn -0.6965 0.1385 0.7041
vn -0.6965 0.1385 -0.7041
vn -0.8173 0.1626 0.5528
vn -0.5490 0.1092 -0.8286
vn -0.9070 0.1804 0.3805
vn -0.3804 0.0757 -0.9217
vn -0.9622 0.1914 0.1939
vn -0.1971 0.0392 -0.9796
vn -0.9808 0.1951 -0.0000
vn -0.1971 0.0392 0.9796
vn -0.9622 0.1914 -0.1939
vn -0.3804 0.0757 0.9217
vn -0.3584 0.1484 -0.9217
vn -0.1857 0.0769 -0.9796
vn -0.9063 0.3754 0.1939
vn -0.9239 0.3827 -0.0000
vn -0.1857 0.0769 0.9796
vn -0.9063 0.3754 -0.1939
vn -0.3584 0.1484 0.9217
vn -0.8544 0.3539 -0.3805
vn -0.5172 0.2142 0.8286
vn -0.7699 0.3189 -0.5528
vn -0.6561 0.2718 0.7041
vn -0.6561 0.2718 -0.7041
vn -0.7699 0.3189 0.5528
vn -0.5172 0.2142 -0.8286
vn -0.8544 0.3539 0.3805
vn -0.4654 0.3110 0.8286
vn -0.5905 0.3945 0.7041
vn -0.6929 0.4630 -0.5528
vn -0.5905 0.3945 -0.7041
vn -0.6929 0.4630 0.5528
vn -0.4654 0.3110 -0.8286
vn -0.7689 0.5138 0.3805
vn -0.3225 0.2155 -0.9217
vn -0.8157 0.5450 0.1939
vn -0.1671 0.1117 -0.9796
vn -0.8315 0.5556 -0.0000
vn -0.1671 0.1117 0.9796
vn -0.8157 0.5450 -0.1939
vn -0.3225 0.2155 0.9217
vn -0.7689 0.5138 -0.3805
vn -0.6937 0.6937 0.1939
vn -0.7071 0.7071 -0.0000
vn -0.1421 0.1421 0.9796
vn -0.1421 0.1421 -0.9796
vn -0.6937 0.6937 -0.1939
vn -0.2743 0.2743 0.9217
vn -0.6539 0.6539 -0.3805
vn -0.3958 0.3958 0.8286
vn -0.5893 0.5893 -0.5528
vn -0.5021 0.5021 0.7041
vn -0.5021 0.5021 -0.7041
vn -0.5893 0.5893 0.5528
vn -0.3958 0.3958 -0.8286
vn -0.6539 0.6539 0.3805
vn -0.2743 0.2743 -0.9217
vn -0.4630 0.6929 -0.5528
vn -0.3945 0.5905 -0.7041
vn -0.3945 0.5905 0.7041
vn -0.4630 0.6929 0.5528
vn -0.3110 0.4654 -0.8286
vn -0.5138 0.7689 0.3805
vn -0.2155 0.3225 -0.9217
vn -0.5450 0.8157 0.1939
vn -0.1117 0.1671 -0.9796
vn -0.5556 0.8315 -0.0000
vn -0.1117 0.1671 0.9796
vn -0.5450 0.8157 -0.1939
vn -0.2155 0.3225 0.9217
vn -0.5138 0.7689 -0.3805
vn -0.3110 0.4654 0.8286
vn -0.0769 0.1857 0.9796
vn -0.0769 0.1857 -0.9796
vn -0.3827 0.9239 -0.0000
vn -0.3754 0.9063 -0.1939
vn -0.1484 0.3584 0.9217
vn -0.3539 0.8544 -0.3805
vn -0.2142 0.5172 0.8286
vn -0.3189 0.7699 -0.5528
vn -0.2718 0.6561 0.7041
vn -0.2718 0.6561 -0.7041
vn -0.3189 0.7699 0.5528
vn -0.2142 0.5172 -0.8286
vn -0.3539 0.8544 0.3805
vn -0.1484 0.3584 -0.9217
vn -0.3754 0.9063 0.1939
vn -0.1385 0.6965 0.7041
vn -0.1626 0.8173 0.5528
vn -0.1385 0.6965 -0.7041
vn -0.1092 0.5490 -0.8286
vn -0.1804 0.9070 0.3805
vn -0.0757 0.3804 -0.9217
vn -0.1914 0.9622 0.1939
vn -0.0392 0.1971 -0.9796
vn -0.1951 0.9808 -0.0000
vn -0.0392 0.1971 0.9796
vn -0.1914 0.9622 -0.1939
vn -0.0757 0.3804 0.9217
vn -0.1804 0.9070 -0.3805
vn -0.1092 0.5490 0.8286
vn -0.1626 0.8173 -0.5528
vt 0.734375 0.000000
vt 0.750000 0.062500
vt 0.718750 0.062500
vt 0.750000 0.437500
vt 0.750000 0.500000
vt 0.718750 0.500000
vt 0.718750 0.437500
vt 0.750000 0.875000
vt 0.750000 0.937500
vt 0.718750 0.937500
vt 0.718750 0.875000
vt 0.750000 0.375000
vt 0.718750 0.375000
vt 0.750000 0.812500
vt 0.718750 0.812500
vt 0.750000 0.312500
vt 0.718750 0.312500
vt 0.750000 0.750000
vt 0.718750 0.750000
vt 0.750000 0.250000
vt 0.718750 0.250000
vt 0.750000 0.687500
vt 0.718750 0.687500
vt 0.750000 0.187500
vt 0.718750 0.187500
vt 0.750000 0.625000
vt 0.718750 0.625000
vt 0.750000 0.125000
vt 0.718750 0.125000
vt 0.750000 0.562500
vt 0.718750 0.562500
vt 0.734375 1.000000
vt 0.687500 0.125000
vt 0.687500 0.062500
vt 0.687500 0.562500
vt 0.687500 0.500000
vt 0.703125 1.000000
vt 0.687500 0.937500
vt 0.703125 0.000000
vt 0.687500 0.437500
vt 0.687500 0.875000
vt 0.687500 0.375000
vt 0.687500 0.812500
vt 0.687500 0.312500
vt 0.687500 0.750000
vt 0.687500 0.250000
vt 0.687500 0.687500
vt 0.687500 0.187500
vt 0.687500 0.625000
vt 0.656250 0.812500
vt 0.656250 0.750000
vt 0.656250 0.312500
vt 0.656250 0.250000
vt 0.656250 0.687500
vt 0.656250 0.187500
vt 0.656250 0.625000
vt 0.656250 0.125000
vt 0.656250 0.562500
vt 0.656250 0.062500
vt 0.656250 0.500000
vt 0.671875 1.000000
vt 0.656250 0.937500
vt 0.671875 0.000000
vt 0.656250 0.437500
vt 0.656250 0.875000
vt 0.656250 0.375000
vt 0.625000 0.562500
vt 0.625000 0.500000
vt 0.640625 1.000000
vt 0.625000 0.937500
vt 0.640625 0.000000
vt 0.625000 0.062500
vt 0.625000 0.437500
vt 0.625000 0.875000
vt 0.625000 0.375000
vt 0.625000 0.812500
vt 0.625000 0.312500
vt 0.625000 0.750000
vt 0.625000 0.250000
vt 0.625000 0.687500
vt 0.625000 0.187500
vt 0.625000 0.625000
vt 0.625000 0.125000
vt 0.593750 0.312500
vt 0.593750 0.250000
vt 0.593750 0.750000
vt 0.593750 0.687500
vt 0.593750 0.187500
vt 0.593750 0.625000
vt 0.593750 0.125000
vt 0.593750 0.562500
vt 0.593750 0.062500
vt 0.593750 0.500000
vt 0.609375 1.000000
vt 0.593750 0.937500
vt 0.609375 0.000000
vt 0.593750 0.437500
vt 0.593750 0.875000
vt 0.593750 0.375000
vt 0.593750 0.812500
vt 0.578125 0.000000
vt 0.562500 0.062500
vt 0.562500 0.500000
vt 0.562500 0.437500
vt 0.562500 0.937500
vt 0.562500 0.875000
vt 0.562500 0.375000
vt 0.562500 0.812500
vt 0.562500 0.312500
vt 0.562500 0.750000
vt 0.562500 0.250000
vt 0.562500 0.687500
vt 0.562500 0.187500
vt 0.562500 0.625000
vt 0.562500 0.125000
vt 0.562500 0.562500
vt 0.578125 1.000000
vt 0.531250 0.250000
vt 0.531250 0.187500
vt 0.531250 0.687500
vt 0.531250 0.625000
vt 0.531250 0.125000
vt 0.531250 0.562500
vt 0.531250 0.062500
vt 0.531250 0.500000
vt 0.546875 1.000000
vt 0.531250 0.937500
vt 0.546875 0.000000
vt 0.531250 0.437500
vt 0.531250 0.875000
vt 0.531250 0.375000
vt 0.531250 0.812500
vt 0.531250 0.312500
vt 0.531250 0.750000
vt 0.500000 0.937500
vt 0.500000 0.875000
vt 0.500000 0.437500
vt 0.500000 0.375000
vt 0.500000 0.812500
vt 0.500000 0.312500
vt 0.500000 0.750000
vt 0.500000 0.250000
vt 0.500000 0.687500
vt 0.500000 0.187500
vt 0.500000 0.625000
vt 0.500000 0.125000
vt 0.500000 0.562500
vt 0.500000 0.062500
vt 0.500000 0.500000
vt 0.515625 1.000000
vt 0.515625 0.000000
vt 0.468750 0.687500
vt 0.468750 0.625000
vt 0.468750 0.187500
vt 0.468750 0.125000
vt 0.468750 0.562500
vt 0.468750 0.062500
vt 0.468750 0.500000
vt 0.484375 1.000000
vt 0.468750 0.937500
vt 0.484375 0.000000
vt 0.468750 0.437500
vt 0.468750 0.875000
vt 0.468750 0.375000
vt 0.468750 0.812500
vt 0.468750 0.312500
vt 0.468750 0.750000
vt 0.468750 0.250000
vt 0.437500 0.437500
vt 0.437500 0.375000
vt 0.437500 0.875000
vt 0.437500 0.812500
vt 0.437500 0.312500
vt 0.437500 0.750000
vt 0.437500 0.250000
vt 0.437500 0.687500
vt 0.437500 0.187500
vt 0.437500 0.625000
vt 0.437500 0.125000
vt 0.437500 0.562500
vt 0.437500 0.062500
vt 0.437500 0.500000
vt 0.453125 1.000000
vt 0.437500 0.937500
vt 0.453125 0.000000
vt 0.406250 0.187500
vt 0.406250 0.125000
vt 0.406250 0.625000
vt 0.406250 0.562500
vt 0.406250 0.062500
vt 0.406250 0.500000
vt 0.421875 1.000000
vt 0.406250 0.937500
vt 0.421875 0.000000
vt 0.406250 0.437500
vt 0.406250 0.875000
vt 0.406250 0.375000
vt 0.406250 0.812500
vt 0.406250 0.312500
vt 0.406250 0.750000
vt 0.406250 0.250000
vt 0.406250 0.687500
vt 0.375000 0.875000
vt 0.375000 0.812500
vt 0.375000 0.375000
vt 0.375000 0.312500
vt 0.375000 0.750000
vt 0.375000 0.250000
vt 0.375000 0.687500
vt 0.375000 0.187500
vt 0.375000 0.625000
vt 0.375000 0.125000
vt 0.375000 0.562500
vt 0.375000 0.062500
vt 0.375000 0.500000
vt 0.390625 1.000000
vt 0.375000 0.937500
vt 0.390625 0.000000
vt 0.375000 0.437500
vt 0.343750 0.625000
vt 0.343750 0.562500
vt 0.343750 0.125000
vt 0.343750 0.062500
vt 0.343750 0.500000
vt 0.359375 1.000000
vt 0.343750 0.937500
vt 0.359375 0.000000
vt 0.343750 0.437500
vt 0.343750 0.875000
vt 0.343750 0.375000
vt 0.343750 0.812500
vt 0.343750 0.312500
vt 0.343750 0.750000
vt 0.343750 0.250000
vt 0.343750 0.687500
vt 0.343750 0.187500
vt 0.312500 0.375000
vt 0.312500 0.312500
vt 0.312500 0.812500
vt 0.312500 0.750000
vt 0.312500 0.250000
vt 0.312500 0.687500
vt 0.312500 0.187500
vt 0.312500 0.625000
vt 0.312500 0.125000
vt 0.312500 0.562500
vt 0.312500 0.062500
vt 0.312500 0.500000
vt 0.328125 1.000000
vt 0.312500 0.937500
vt 0.328125 0.000000
vt 0.312500 0.437500
vt 0.312500 0.875000
vt 0.281250 0.125000
vt 0.281250 0.062500
vt 0.281250 0.562500
vt 0.281250 0.500000
vt 0.296875 1.000000
vt 0.281250 0.937500
vt 0.296875 0.000000
vt 0.281250 0.437500
vt 0.281250 0.875000
vt 0.281250 0.375000
vt 0.281250 0.812500
vt 0.281250 0.312500
vt 0.281250 0.750000
vt 0.281250 0.250000
vt 0.281250 0.687500
vt 0.281250 0.187500
vt 0.281250 0.625000
vt 0.250000 0.312500
vt 0.250000 0.250000
vt 0.250000 0.750000
vt 0.250000 0.687500
vt 0.250000 0.187500
vt 0.250000 0.625000
vt 0.250000 0.125000
vt 0.250000 0.562500
vt 0.250000 0.062500
vt 0.250000 0.500000
vt 0.265625 1.000000
vt 0.250000 0.937500
vt 0.265625 0.000000
vt 0.250000 0.437500
vt 0.250000 0.875000
vt 0.250000 0.375000
vt 0.250000 0.812500
vt 0.234375 1.000000
vt 0.218750 0.937500
vt 0.234375 0.000000
vt 0.218750 0.062500
vt 0.218750 0.500000
vt 0.218750 0.437500
vt 0.218750 0.875000
vt 0.218750 0.375000
vt 0.218750 0.812500
vt 0.218750 0.312500
vt 0.218750 0.750000
vt 0.218750 0.250000
vt 0.218750 0.687500
vt 0.218750 0.187500
vt 0.218750 0.625000
vt 0.218750 0.125000
vt 0.218750 0.562500
vt 0.187500 0.750000
vt 0.187500 0.687500
vt 0.187500 0.250000
vt 0.187500 0.187500
vt 0.187500 0.625000
vt 0.187500 0.125000
vt 0.187500 0.562500
vt 0.187500 0.062500
vt 0.187500 0.500000
vt 0.203125 1.000000
vt 0.187500 0.937500
vt 0.203125 0.000000
vt 0.187500 0.437500
vt 0.187500 0.875000
vt 0.187500 0.375000
vt 0.187500 0.812500
vt 0.187500 0.312500
vt 0.156250 0.500000
vt 0.156250 0.437500
vt 0.156250 0.937500
vt 0.156250 0.875000
vt 0.156250 0.375000
vt 0.156250 0.812500
vt 0.156250 0.312500
vt 0.156250 0.750000
vt 0.156250 0.250000
vt 0.156250 0.687500
vt 0.156250 0.187500
vt 0.156250 0.625000
vt 0.156250 0.125000
vt 0.156250 0.562500
vt 0.156250 0.062500
vt 0.171875 1.000000
vt 0.171875 0.000000
vt 0.125000 0.250000
vt 0.125000 0.187500
vt 0.125000 0.687500
vt 0.125000 0.625000
vt 0.125000 0.125000
vt 0.125000 0.562500
vt 0.125000 0.062500
vt 0.125000 0.500000
vt 0.140625 1.000000
vt 0.125000 0.937500
vt 0.140625 0.000000
vt 0.125000 0.437500
vt 0.125000 0.875000
vt 0.125000 0.375000
vt 0.125000 0.812500
vt 0.125000 0.312500
vt 0.125000 0.750000
vt 0.093750 0.937500
vt 0.093750 0.875000
vt 0.093750 0.437500
vt 0.093750 0.375000
vt 0.093750 0.812500
vt 0.093750 0.312500
vt 0.093750 0.750000
vt 0.093750 0.250000
vt 0.093750 0.687500
vt 0.093750 0.187500
vt 0.093750 0.625000
vt 0.093750 0.125000
vt 0.093750 0.562500
vt 0.093750 0.062500
vt 0.093750 0.500000
vt 0.109375 1.000000
vt 0.109375 0.000000
vt 0.062500 0.687500
vt 0.062500 0.625000
vt 0.062500 0.187500
vt 0.062500 0.125000
vt 0.062500 0.562500
vt 0.062500 0.062500
vt 0.062500 0.500000
vt 0.078125 1.000000
vt 0.062500 0.937500
vt 0.078125 0.000000
vt 0.062500 0.437500
vt 0.062500 0.875000
vt 0.062500 0.375000
vt 0.062500 0.812500
vt 0.062500 0.312500
vt 0.062500 0.750000
vt 0.062500 0.250000
vt 0.031250 0.437500
vt 0.031250 0.375000
vt 0.031250 0.875000
vt 0.031250 0.812500
vt 0.031250 0.312500
vt 0.031250 0.750000
vt 0.031250 0.250000
vt 0.031250 0.687500
vt 0.031250 0.187500
vt 0.031250 0.625000
vt 0.031250 0.125000
vt 0.031250 0.562500
vt 0.031250 0.062500
vt 0.031250 0.500000
vt 0.046875 1.000000
vt 0.031250 0.937500
vt 0.046875 0.000000
vt 0.000000 0.187500
vt 0.000000 0.125000
vt 0.000000 0.625000
vt 0.000000 0.562500
vt 0.000000 0.062500
vt 0.000000 0.500000
vt 0.015625 1.000000
vt 0.000000 0.937500
vt 0.015625 0.000000
vt 0.000000 0.437500
vt 0.000000 0.875000
vt 0.000000 0.375000
vt 0.000000 0.812500
vt 0.000000 0.312500
vt 0.000000 0.750000
vt 0.000000 0.250000
vt 0.000000 0.687500
vt 1.000000 0.312500
vt 1.000000 0.375000
vt 0.968750 0.375000
vt 0.968750 0.312500
vt 1.000000 0.750000
vt 1.000000 0.812500
vt 0.968750 0.812500
vt 0.968750 0.750000
vt 1.000000 0.250000
vt 0.968750 0.250000
vt 1.000000 0.687500
vt 0.968750 0.687500
vt 1.000000 0.187500
vt 0.968750 0.187500
vt 1.000000 0.625000
vt 0.968750 0.625000
vt 1.000000 0.125000
vt 0.968750 0.125000
vt 1.000000 0.562500
vt 0.968750 0.562500
vt 1.000000 0.062500
vt 0.968750 0.062500
vt 1.000000 0.500000
vt 0.968750 0.500000
vt 1.000000 0.937500
vt 0.984375 1.000000
vt 0.968750 0.937500
vt 0.984375 0.000000
vt 1.000000 0.437500
vt 0.968750 0.437500
vt 1.000000 0.875000
vt 0.968750 0.875000
vt 0.937500 0.125000
vt 0.937500 0.062500
vt 0.937500 0.562500
vt 0.937500 0.500000
vt 0.953125 1.000000
vt 0.937500 0.937500
vt 0.953125 0.000000
vt 0.937500 0.437500
vt 0.937500 0.875000
vt 0.937500 0.375000
vt 0.937500 0.812500
vt 0.937500 0.312500
vt 0.937500 0.750000
vt 0.937500 0.250000
vt 0.937500 0.687500
vt 0.937500 0.187500
vt 0.937500 0.625000
vt 0.906250 0.812500
vt 0.906250 0.750000
vt 0.906250 0.312500
vt 0.906250 0.250000
vt 0.906250 0.687500
vt 0.906250 0.187500
vt 0.906250 0.625000
vt 0.906250 0.125000
vt 0.906250 0.562500
vt 0.906250 0.062500
vt 0.906250 0.500000
vt 0.921875 1.000000
vt 0.906250 0.937500
vt 0.921875 0.000000
vt 0.906250 0.437500
vt 0.906250 0.875000
vt 0.906250 0.375000
vt 0.875000 0.562500
vt 0.875000 0.500000
vt 0.890625 1.000000
vt 0.875000 0.937500
vt 0.890625 0.000000
vt 0.875000 0.062500
vt 0.875000 0.437500
vt 0.875000 0.875000
vt 0.875000 0.375000
vt 0.875000 0.812500
vt 0.875000 0.312500
vt 0.875000 0.750000
vt 0.875000 0.250000
vt 0.875000 0.687500
vt 0.875000 0.187500
vt 0.875000 0.625000
vt 0.875000 0.125000
vt 0.843750 0.312500
vt 0.843750 0.250000
vt 0.843750 0.750000
vt 0.843750 0.687500
vt 0.843750 0.187500
vt 0.843750 0.625000
vt 0.843750 0.125000
vt 0.843750 0.562500
vt 0.843750 0.062500
vt 0.843750 0.500000
vt 0.859375 1.000000
vt 0.843750 0.937500
vt 0.859375 0.000000
vt 0.843750 0.437500
vt 0.843750 0.875000
vt 0.843750 0.375000
vt 0.843750 0.812500
vt 0.828125 1.000000
vt 0.812500 0.937500
vt 0.828125 0.000000
vt 0.812500 0.062500
vt 0.812500 0.500000
vt 0.812500 0.437500
vt 0.812500 0.875000
vt 0.812500 0.375000
vt 0.812500 0.812500
vt 0.812500 0.312500
vt 0.812500 0.750000
vt 0.812500 0.250000
vt 0.812500 0.687500
vt 0.812500 0.187500
vt 0.812500 0.625000
vt 0.812500 0.125000
vt 0.812500 0.562500
vt 0.781250 0.750000
vt 0.781250 0.687500
vt 0.781250 0.250000
vt 0.781250 0.187500
vt 0.781250 0.625000
vt 0.781250 0.125000
vt 0.781250 0.562500
vt 0.781250 0.062500
vt 0.781250 0.500000
vt 0.796875 1.000000
vt 0.781250 0.937500
vt 0.796875 0.000000
vt 0.781250 0.437500
vt 0.781250 0.875000
vt 0.781250 0.375000
vt 0.781250 0.812500
vt 0.781250 0.312500
vt 0.765625 1.000000
vt 0.765625 0.000000
s 1
usemtl SkySphere
f 362/1/1 559/2/2 21/3/3
f 5/4/4 4/5/5 14/6/6
f 5/4/4 14/6/6 15/7/7
f 552/8/8 551/9/9 7/10/10
f 552/8/8 7/10/10 8/11/11
f 555/12/12 5/4/4 15/7/7
f 555/12/12 15/7/7 16/13/13
f 1/14/14 552/8/8 8/11/11
f 1/14/14 8/11/11 9/15/15
f 6/16/16 555/12/12 16/13/13
f 6/16/16 16/13/13 17/17/17
f 553/18/18 1/14/14 9/15/15
f 553/18/18 9/15/15 10/19/19
f 556/20/20 6/16/16 17/17/17
f 556/20/20 17/17/17 18/21/21
f 2/22/22 553/18/18 10/19/19
f 2/22/22 10/19/19 11/23/23
f 557/24/24 556/20/20 18/21/21
f 557/24/24 18/21/21 19/25/25
f 554/26/26 2/22/22 11/23/23
f 554/26/26 11/23/23 12/27/27
f 558/28/28 557/24/24 19/25/25
f 558/28/28 19/25/25 20/29/29
f 3/30/30 554/26/26 12/27/27
f 3/30/30 12/27/27 13/31/31
f 559/2/2 558/28/28 20/29/29
f 559/2/2 20/29/29 21/3/3
f 4/5/5 3/30/30 13/31/31
f 4/5/5 13/31/31 14/6/6
f 551/9/9 105/32/32 7/10/10
f 21/3/3 20/29/29 35/33/33
f 21/3/3 35/33/33 36/34/34
f 14/6/6 13/31/31 28/35/35
f 14/6/6 28/35/35 29/36/36
f 7/10/10 104/37/32 22/38/37
f 361/39/1 21/3/3 36/34/34
f 15/7/7 14/6/6 29/36/36
f 15/7/7 29/36/36 30/40/38
f 8/11/11 7/10/10 22/38/37
f 8/11/11 22/38/37 23/41/39
f 16/13/13 15/7/7 30/40/38
f 16/13/13 30/40/38 31/42/40
f 9/15/15 8/11/11 23/41/39
f 9/15/15 23/41/39 24/43/41
f 17/17/17 16/13/13 31/42/40
f 17/17/17 31/42/40 32/44/42
f 10/19/19 9/15/15 24/43/41
f 10/19/19 24/43/41 25/45/43
f 18/21/21 17/17/17 32/44/42
f 18/21/21 32/44/42 33/46/44
f 11/23/23 10/19/19 25/45/43
f 11/23/23 25/45/43 26/47/45
f 19/25/25 18/21/21 33/46/44
f 19/25/25 33/46/44 34/48/46
f 12/27/27 11/23/23 26/47/45
f 12/27/27 26/47/45 27/49/47
f 20/29/29 19/25/25 34/48/46
f 20/29/29 34/48/46 35/33/33
f 13/31/31 12/27/27 27/49/47
f 13/31/31 27/49/47 28/35/35
f 25/45/43 24/43/41 39/50/48
f 25/45/43 39/50/48 40/51/49
f 33/46/44 32/44/42 47/52/50
f 33/46/44 47/52/50 48/53/51
f 26/47/45 25/45/43 40/51/49
f 26/47/45 40/51/49 41/54/52
f 34/48/46 33/46/44 48/53/51
f 34/48/46 48/53/51 49/55/53
f 27/49/47 26/47/45 41/54/52
f 27/49/47 41/54/52 42/56/54
f 35/33/33 34/48/46 49/55/53
f 35/33/33 49/55/53 50/57/55
f 28/35/35 27/49/47 42/56/54
f 28/35/35 42/56/54 43/58/56
f 36/34/34 35/33/33 50/57/55
f 36/34/34 50/57/55 51/59/57
f 29/36/36 28/35/35 43/58/56
f 29/36/36 43/58/56 44/60/58
f 22/38/37 103/61/32 37/62/59
f 360/63/1 36/34/34 51/59/57
f 30/40/38 29/36/36 44/60/58
f 30/40/38 44/60/58 45/64/60
f 23/41/39 22/38/37 37/62/59
f 23/41/39 37/62/59 38/65/61
f 31/42/40 30/40/38 45/64/60
f 31/42/40 45/64/60 46/66/62
f 24/43/41 23/41/39 38/65/61
f 24/43/41 38/65/61 39/50/48
f 32/44/42 31/42/40 46/66/62
f 32/44/42 46/66/62 47/52/50
f 44/60/58 43/58/56 58/67/63
f 44/60/58 58/67/63 59/68/64
f 37/62/59 102/69/32 52/70/65
f 359/71/1 51/59/57 66/72/66
f 45/64/60 44/60/58 59/68/64
f 45/64/60 59/68/64 60/73/67
f 38/65/61 37/62/59 52/70/65
f 38/65/61 52/70/65 53/74/68
f 46/66/62 45/64/60 60/73/67
f 46/66/62 60/73/67 61/75/69
f 39/50/48 38/65/61 53/74/68
f 39/50/48 53/74/68 54/76/70
f 47/52/50 46/66/62 61/75/69
f 47/52/50 61/75/69 62/77/71
f 40/51/49 39/50/48 54/76/70
f 40/51/49 54/76/70 55/78/72
f 48/53/51 47/52/50 62/77/71
f 48/53/51 62/77/71 63/79/73
f 41/54/52 40/51/49 55/78/72
f 41/54/52 55/78/72 56/80/74
f 49/55/53 48/53/51 63/79/73
f 49/55/53 63/79/73 64/81/75
f 42/56/54 41/54/52 56/80/74
f 42/56/54 56/80/74 57/82/76
f 50/57/55 49/55/53 64/81/75
f 50/57/55 64/81/75 65/83/77
f 43/58/56 42/56/54 57/82/76
f 43/58/56 57/82/76 58/67/63
f 51/59/57 50/57/55 65/83/77
f 51/59/57 65/83/77 66/72/66
f 63/79/73 62/77/71 77/84/78
f 63/79/73 77/84/78 78/85/79
f 56/80/74 55/78/72 70/86/80
f 56/80/74 70/86/80 71/87/81
f 64/81/75 63/79/73 78/85/79
f 64/81/75 78/85/79 79/88/82
f 57/82/76 56/80/74 71/87/81
f 57/82/76 71/87/81 72/89/83
f 65/83/77 64/81/75 79/88/82
f 65/83/77 79/88/82 80/90/84
f 58/67/63 57/82/76 72/89/83
f 58/67/63 72/89/83 73/91/85
f 66/72/66 65/83/77 80/90/84
f 66/72/66 80/90/84 81/92/86
f 59/68/64 58/67/63 73/91/85
f 59/68/64 73/91/85 74/93/87
f 52/70/65 101/94/32 67/95/88
f 358/96/1 66/72/66 81/92/86
f 60/73/67 59/68/64 74/93/87
f 60/73/67 74/93/87 75/97/89
f 53/74/68 52/70/65 67/95/88
f 53/74/68 67/95/88 68/98/90
f 61/75/69 60/73/67 75/97/89
f 61/75/69 75/97/89 76/99/91
f 54/76/70 53/74/68 68/98/90
f 54/76/70 68/98/90 69/100/92
f 62/77/71 61/75/69 76/99/91
f 62/77/71 76/99/91 77/84/78
f 55/78/72 54/76/70 69/100/92
f 55/78/72 69/100/92 70/86/80
f 357/101/1 81/92/86 128/102/93
f 75/97/89 74/93/87 121/103/94
f 75/97/89 121/103/94 122/104/95
f 68/98/90 67/95/88 114/105/96
f 68/98/90 114/105/96 115/106/97
f 76/99/91 75/97/89 122/104/95
f 76/99/91 122/104/95 123/107/98
f 69/100/92 68/98/90 115/106/97
f 69/100/92 115/106/97 116/108/99
f 77/84/78 76/99/91 123/107/98
f 77/84/78 123/107/98 124/109/100
f 70/86/80 69/100/92 116/108/99
f 70/86/80 116/108/99 117/110/101
f 78/85/79 77/84/78 124/109/100
f 78/85/79 124/109/100 125/111/102
f 71/87/81 70/86/80 117/110/101
f 71/87/81 117/110/101 118/112/103
f 79/88/82 78/85/79 125/111/102
f 79/88/82 125/111/102 126/113/104
f 72/89/83 71/87/81 118/112/103
f 72/89/83 118/112/103 119/114/105
f 80/90/84 79/88/82 126/113/104
f 80/90/84 126/113/104 127/115/106
f 73/91/85 72/89/83 119/114/105
f 73/91/85 119/114/105 120/116/107
f 81/92/86 80/90/84 127/115/106
f 81/92/86 127/115/106 128/102/93
f 74/93/87 73/91/85 120/116/107
f 74/93/87 120/116/107 121/103/94
f 67/95/88 100/117/32 114/105/96
f 126/113/104 125/111/102 140/118/108
f 126/113/104 140/118/108 141/119/109
f 119/114/105 118/112/103 133/120/110
f 119/114/105 133/120/110 134/121/111
f 127/115/106 126/113/104 141/119/109
f 127/115/106 141/119/109 142/122/112
f 120/116/107 119/114/105 134/121/111
f 120/116/107 134/121/111 135/123/113
f 128/102/93 127/115/106 142/122/112
f 128/102/93 142/122/112 143/124/114
f 121/103/94 120/116/107 135/123/113
f 121/103/94 135/123/113 136/125/115
f 114/105/96 99/126/32 129/127/116
f 356/128/1 128/102/93 143/124/114
f 122/104/95 121/103/94 136/125/115
f 122/104/95 136/125/115 137/129/117
f 115/106/97 114/105/96 129/127/116
f 115/106/97 129/127/116 130/130/118
f 123/107/98 122/104/95 137/129/117
f 123/107/98 137/129/117 138/131/119
f 116/108/99 115/106/97 130/130/118
f 116/108/99 130/130/118 131/132/120
f 124/109/100 123/107/98 138/131/119
f 124/109/100 138/131/119 139/133/121
f 117/110/101 116/108/99 131/132/120
f 117/110/101 131/132/120 132/134/122
f 125/111/102 124/109/100 139/133/121
f 125/111/102 139/133/121 140/118/108
f 118/112/103 117/110/101 132/134/122
f 118/112/103 132/134/122 133/120/110
f 130/130/118 129/127/116 144/135/123
f 130/130/118 144/135/123 145/136/124
f 138/131/119 137/129/117 152/137/125
f 138/131/119 152/137/125 153/138/126
f 131/132/120 130/130/118 145/136/124
f 131/132/120 145/136/124 146/139/127
f 139/133/121 138/131/119 153/138/126
f 139/133/121 153/138/126 154/140/128
f 132/134/122 131/132/120 146/139/127
f 132/134/122 146/139/127 147/141/129
f 140/118/108 139/133/121 154/140/128
f 140/118/108 154/140/128 155/142/130
f 133/120/110 132/134/122 147/141/129
f 133/120/110 147/141/129 148/143/131
f 141/119/109 140/118/108 155/142/130
f 141/119/109 155/142/130 156/144/132
f 134/121/111 133/120/110 148/143/131
f 134/121/111 148/143/131 149/145/133
f 142/122/112 141/119/109 156/144/132
f 142/122/112 156/144/132 157/146/134
f 135/123/113 134/121/111 149/145/133
f 135/123/113 149/145/133 150/147/135
f 143/124/114 142/122/112 157/146/134
f 143/124/114 157/146/134 158/148/136
f 136/125/115 135/123/113 150/147/135
f 136/125/115 150/147/135 151/149/137
f 129/127/116 98/150/32 144/135/123
f 355/151/1 143/124/114 158/148/136
f 137/129/117 136/125/115 151/149/137
f 137/129/117 151/149/137 152/137/125
f 149/145/133 148/143/131 163/152/138
f 149/145/133 163/152/138 164/153/139
f 157/146/134 156/144/132 171/154/140
f 157/146/134 171/154/140 172/155/141
f 150/147/135 149/145/133 164/153/139
f 150/147/135 164/153/139 165/156/142
f 158/148/136 157/146/134 172/155/141
f 158/148/136 172/155/141 173/157/143
f 151/149/137 150/147/135 165/156/142
f 151/149/137 165/156/142 166/158/144
f 144/135/123 97/159/32 159/160/145
f 354/161/1 158/148/136 173/157/143
f 152/137/125 151/149/137 166/158/144
f 152/137/125 166/158/144 167/162/146
f 145/136/124 144/135/123 159/160/145
f 145/136/124 159/160/145 160/163/147
f 153/138/126 152/137/125 167/162/146
f 153/138/126 167/162/146 168/164/148
f 146/139/127 145/136/124 160/163/147
f 146/139/127 160/163/147 161/165/149
f 154/140/128 153/138/126 168/164/148
f 154/140/128 168/164/148 169/166/150
f 147/141/129 146/139/127 161/165/149
f 147/141/129 161/165/149 162/167/151
f 155/142/130 154/140/128 169/166/150
f 155/142/130 169/166/150 170/168/152
f 148/143/131 147/141/129 162/167/151
f 148/143/131 162/167/151 163/152/138
f 156/144/132 155/142/130 170/168/152
f 156/144/132 170/168/152 171/154/140
f 168/164/148 167/162/146 182/169/153
f 168/164/148 182/169/153 183/170/154
f 161/165/149 160/163/147 175/171/155
f 161/165/149 175/171/155 176/172/156
f 169/166/150 168/164/148 183/170/154
f 169/166/150 183/170/154 184/173/157
f 162/167/151 161/165/149 176/172/156
f 162/167/151 176/172/156 177/174/158
f 170/168/152 169/166/150 184/173/157
f 170/168/152 184/173/157 185/175/159
f 163/152/138 162/167/151 177/174/158
f 163/152/138 177/174/158 178/176/160
f 171/154/140 170/168/152 185/175/159
f 171/154/140 185/175/159 186/177/161
f 164/153/139 163/152/138 178/176/160
f 164/153/139 178/176/160 179/178/162
f 172/155/141 171/154/140 186/177/161
f 172/155/141 186/177/161 187/179/163
f 165/156/142 164/153/139 179/178/162
f 165/156/142 179/178/162 180/180/164
f 173/157/143 172/155/141 187/179/163
f 173/157/143 187/179/163 188/181/165
f 166/158/144 165/156/142 180/180/164
f 166/158/144 180/180/164 181/182/166
f 159/160/145 96/183/32 174/184/167
f 353/185/1 173/157/143 188/181/165
f 167/162/146 166/158/144 181/182/166
f 167/162/146 181/182/166 182/169/153
f 160/163/147 159/160/145 174/184/167
f 160/163/147 174/184/167 175/171/155
f 187/179/163 186/177/161 201/186/168
f 187/179/163 201/186/168 202/187/169
f 180/180/164 179/178/162 194/188/170
f 180/180/164 194/188/170 195/189/171
f 188/181/165 187/179/163 202/187/169
f 188/181/165 202/187/169 203/190/172
f 181/182/166 180/180/164 195/189/171
f 181/182/166 195/189/171 196/191/173
f 174/184/167 95/192/32 189/193/174
f 352/194/1 188/181/165 203/190/172
f 182/169/153 181/182/166 196/191/173
f 182/169/153 196/191/173 197/195/175
f 175/171/155 174/184/167 189/193/174
f 175/171/155 189/193/174 190/196/176
f 183/170/154 182/169/153 197/195/175
f 183/170/154 197/195/175 198/197/177
f 176/172/156 175/171/155 190/196/176
f 176/172/156 190/196/176 191/198/178
f 184/173/157 183/170/154 198/197/177
f 184/173/157 198/197/177 199/199/179
f 177/174/158 176/172/156 191/198/178
f 177/174/158 191/198/178 192/200/180
f 185/175/159 184/173/157 199/199/179
f 185/175/159 199/199/179 200/201/181
f 178/176/160 177/174/158 192/200/180
f 178/176/160 192/200/180 193/202/182
f 186/177/161 185/175/159 200/201/181
f 186/177/161 200/201/181 201/186/168
f 179/178/162 178/176/160 193/202/182
f 179/178/162 193/202/182 194/188/170
f 191/198/178 190/196/176 205/203/183
f 191/198/178 205/203/183 206/204/184
f 199/199/179 198/197/177 213/205/185
f 199/199/179 213/205/185 214/206/186
f 192/200/180 191/198/178 206/204/184
f 192/200/180 206/204/184 207/207/187
f 200/201/181 199/199/179 214/206/186
f 200/201/181 214/206/186 215/208/188
f 193/202/182 192/200/180 207/207/187
f 193/202/182 207/207/187 208/209/189
f 201/186/168 200/201/181 215/208/188
f 201/186/168 215/208/188 216/210/190
f 194/188/170 193/202/182 208/209/189
f 194/188/170 208/209/189 209/211/191
f 202/187/169 201/186/168 216/210/190
f 202/187/169 216/210/190 217/212/192
f 195/189/171 194/188/170 209/211/191
f 195/189/171 209/211/191 210/213/193
f 203/190/172 202/187/169 217/212/192
f 203/190/172 217/212/192 218/214/194
f 196/191/173 195/189/171 210/213/193
f 196/191/173 210/213/193 211/215/195
f 189/193/174 94/216/32 204/217/196
f 351/218/1 203/190/172 218/214/194
f 197/195/175 196/191/173 211/215/195
f 197/195/175 211/215/195 212/219/197
f 190/196/176 189/193/174 204/217/196
f 190/196/176 204/217/196 205/203/183
f 198/197/177 197/195/175 212/219/197
f 198/197/177 212/219/197 213/205/185
f 210/213/193 209/211/191 224/220/198
f 210/213/193 224/220/198 225/221/199
f 218/214/194 217/212/192 232/222/200
f 218/214/194 232/222/200 233/223/201
f 211/215/195 210/213/193 225/221/199
f 211/215/195 225/221/199 226/224/202
f 204/217/196 93/225/32 219/226/203
f 350/227/1 218/214/194 233/223/201
f 212/219/197 211/215/195 226/224/202
f 212/219/197 226/224/202 227/228/204
f 205/203/183 204/217/196 219/226/203
f 205/203/183 219/226/203 220/229/205
f 213/205/185 212/219/197 227/228/204
f 213/205/185 227/228/204 228/230/206
f 206/204/184 205/203/183 220/229/205
f 206/204/184 220/229/205 221/231/207
f 214/206/186 213/205/185 228/230/206
f 214/206/186 228/230/206 229/232/208
f 207/207/187 206/204/184 221/231/207
f 207/207/187 221/231/207 222/233/209
f 215/208/188 214/206/186 229/232/208
f 215/208/188 229/232/208 230/234/210
f 208/209/189 207/207/187 222/233/209
f 208/209/189 222/233/209 223/235/211
f 216/210/190 215/208/188 230/234/210
f 216/210/190 230/234/210 231/236/212
f 209/211/191 208/209/189 223/235/211
f 209/211/191 223/235/211 224/220/198
f 217/212/192 216/210/190 231/236/212
f 217/212/192 231/236/212 232/222/200
f 229/232/208 228/230/206 243/237/213
f 229/232/208 243/237/213 244/238/214
f 222/233/209 221/231/207 236/239/215
f 222/233/209 236/239/215 237/240/216
f 230/234/210 229/232/208 244/238/214
f 230/234/210 244/238/214 245/241/217
f 223/235/211 222/233/209 237/240/216
f 223/235/211 237/240/216 238/242/218
f 231/236/212 230/234/210 245/241/217
f 231/236/212 245/241/217 246/243/219
f 224/220/198 223/235/211 238/242/218
f 224/220/198 238/242/218 239/244/220
f 232/222/200 231/236/212 246/243/219
f 232/222/200 246/243/219 247/245/221
f 225/221/199 224/220/198 239/244/220
f 225/221/199 239/244/220 240/246/222
f 233/223/201 232/222/200 247/245/221
f 233/223/201 247/245/221 248/247/223
f 226/224/202 225/221/199 240/246/222
f 226/224/202 240/246/222 241/248/224
f 219/226/203 92/249/32 234/250/225
f 349/251/1 233/223/201 248/247/223
f 227/228/204 226/224/202 241/248/224
f 227/228/204 241/248/224 242/252/226
f 220/229/205 219/226/203 234/250/225
f 220/229/205 234/250/225 235/253/227
f 228/230/206 227/228/204 242/252/226
f 228/230/206 242/252/226 243/237/213
f 221/231/207 220/229/205 235/253/227
f 221/231/207 235/253/227 236/239/215
f 248/247/223 247/245/221 262/254/228
f 248/247/223 262/254/228 263/255/229
f 241/248/224 240/246/222 255/256/230
f 241/248/224 255/256/230 256/257/231
f 234/250/225 91/258/32 249/259/232
f 348/260/1 248/247/223 263/255/229
f 242/252/226 241/248/224 256/257/231
f 242/252/226 256/257/231 257/261/233
f 235/253/227 234/250/225 249/259/232
f 235/253/227 249/259/232 250/262/234
f 243/237/213 242/252/226 257/261/233
f 243/237/213 257/261/233 258/263/235
f 236/239/215 235/253/227 250/262/234
f 236/239/215 250/262/234 251/264/236
f 244/238/214 243/237/213 258/263/235
f 244/238/214 258/263/235 259/265/237
f 237/240/216 236/239/215 251/264/236
f 237/240/216 251/264/236 252/266/238
f 245/241/217 244/238/214 259/265/237
f 245/241/217 259/265/237 260/267/239
f 238/242/218 237/240/216 252/266/238
f 238/242/218 252/266/238 253/268/240
f 246/243/219 245/241/217 260/267/239
f 246/243/219 260/267/239 261/269/241
f 239/244/220 238/242/218 253/268/240
f 239/244/220 253/268/240 254/270/242
f 247/245/221 246/243/219 261/269/241
f 247/245/221 261/269/241 262/254/228
f 240/246/222 239/244/220 254/270/242
f 240/246/222 254/270/242 255/256/230
f 260/267/239 259/265/237 274/271/243
f 260/267/239 274/271/243 275/272/244
f 253/268/240 252/266/238 267/273/245
f 253/268/240 267/273/245 268/274/246
f 261/269/241 260/267/239 275/272/244
f 261/269/241 275/272/244 276/275/247
f 254/270/242 253/268/240 268/274/246
f 254/270/242 268/274/246 269/276/248
f 262/254/228 261/269/241 276/275/247
f 262/254/228 276/275/247 277/277/249
f 255/256/230 254/270/242 269/276/248
f 255/256/230 269/276/248 270/278/250
f 263/255/229 262/254/228 277/277/249
f 263/255/229 277/277/249 278/279/251
f 256/257/231 255/256/230 270/278/250
f 256/257/231 270/278/250 271/280/252
f 249/259/232 90/281/32 264/282/253
f 347/283/1 263/255/229 278/279/251
f 257/261/233 256/257/231 271/280/252
f 257/261/233 271/280/252 272/284/254
f 250/262/234 249/259/232 264/282/253
f 250/262/234 264/282/253 265/285/255
f 258/263/235 257/261/233 272/284/254
f 258/263/235 272/284/254 273/286/256
f 251/264/236 250/262/234 265/285/255
f 251/264/236 265/285/255 266/287/257
f 259/265/237 258/263/235 273/286/256
f 259/265/237 273/286/256 274/271/243
f 252/266/238 251/264/236 266/287/257
f 252/266/238 266/287/257 267/273/245
f 264/282/253 89/288/32 279/289/258
f 346/290/1 278/279/251 293/291/259
f 272/284/254 271/280/252 286/292/260
f 272/284/254 286/292/260 287/293/261
f 265/285/255 264/282/253 279/289/258
f 265/285/255 279/289/258 280/294/262
f 273/286/256 272/284/254 287/293/261
f 273/286/256 287/293/261 288/295/263
f 266/287/257 265/285/255 280/294/262
f 266/287/257 280/294/262 281/296/264
f 274/271/243 273/286/256 288/295/263
f 274/271/243 288/295/263 289/297/265
f 267/273/245 266/287/257 281/296/264
f 267/273/245 281/296/264 282/298/266
f 275/272/244 274/271/243 289/297/265
f 275/272/244 289/297/265 290/299/267
f 268/274/246 267/273/245 282/298/266
f 268/274/246 282/298/266 283/300/268
f 276/275/247 275/272/244 290/299/267
f 276/275/247 290/299/267 291/301/269
f 269/276/248 268/274/246 283/300/268
f 269/276/248 283/300/268 284/302/270
f 277/277/249 276/275/247 291/301/269
f 277/277/249 291/301/269 292/303/271
f 270/278/250 269/276/248 284/302/270
f 270/278/250 284/302/270 285/304/272
f 278/279/251 277/277/249 292/303/271
f 278/279/251 292/303/271 293/291/259
f 271/280/252 270/278/250 285/304/272
f 271/280/252 285/304/272 286/292/260
f 283/300/268 282/298/266 297/305/273
f 283/300/268 297/305/273 298/306/274
f 291/301/269 290/299/267 305/307/275
f 291/301/269 305/307/275 306/308/276
f 284/302/270 283/300/268 298/306/274
f 284/302/270 298/306/274 299/309/277
f 292/303/271 291/301/269 306/308/276
f 292/303/271 306/308/276 307/310/278
f 285/304/272 284/302/270 299/309/277
f 285/304/272 299/309/277 300/311/279
f 293/291/259 292/303/271 307/310/278
f 293/291/259 307/310/278 308/312/280
f 286/292/260 285/304/272 300/311/279
f 286/292/260 300/311/279 301/313/281
f 279/289/258 88/314/32 294/315/282
f 345/316/1 293/291/259 308/312/280
f 287/293/261 286/292/260 301/313/281
f 287/293/261 301/313/281 302/317/283
f 280/294/262 279/289/258 294/315/282
f 280/294/262 294/315/282 295/318/284
f 288/295/263 287/293/261 302/317/283
f 288/295/263 302/317/283 303/319/285
f 281/296/264 280/294/262 295/318/284
f 281/296/264 295/318/284 296/320/286
f 289/297/265 288/295/263 303/319/285
f 289/297/265 303/319/285 304/321/287
f 282/298/266 281/296/264 296/320/286
f 282/298/266 296/320/286 297/305/273
f 290/299/267 289/297/265 304/321/287
f 290/299/267 304/321/287 305/307/275
f 302/317/283 301/313/281 316/322/288
f 302/317/283 316/322/288 317/323/289
f 295/318/284 294/315/282 309/324/290
f 295/318/284 309/324/290 310/325/291
f 303/319/285 302/317/283 317/323/289
f 303/319/285 317/323/289 318/326/292
f 296/320/286 295/318/284 310/325/291
f 296/320/286 310/325/291 311/327/293
f 304/321/287 303/319/285 318/326/292
f 304/321/287 318/326/292 319/328/294
f 297/305/273 296/320/286 311/327/293
f 297/305/273 311/327/293 312/329/295
f 305/307/275 304/321/287 319/328/294
f 305/307/275 319/328/294 320/330/296
f 298/306/274 297/305/273 312/329/295
f 298/306/274 312/329/295 313/331/297
f 306/308/276 305/307/275 320/330/296
f 306/308/276 320/330/296 321/332/298
f 299/309/277 298/306/274 313/331/297
f 299/309/277 313/331/297 314/333/299
f 307/310/278 306/308/276 321/332/298
f 307/310/278 321/332/298 322/334/300
f 300/311/279 299/309/277 314/333/299
f 300/311/279 314/333/299 315/335/301
f 308/312/280 307/310/278 322/334/300
f 308/312/280 322/334/300 323/336/302
f 301/313/281 300/311/279 315/335/301
f 301/313/281 315/335/301 316/322/288
f 294/315/282 87/337/32 309/324/290
f 344/338/1 308/312/280 323/336/302
f 321/332/298 320/330/296 335/339/303
f 321/332/298 335/339/303 336/340/304
f 314/333/299 313/331/297 328/341/305
f 314/333/299 328/341/305 329/342/306
f 322/334/300 321/332/298 336/340/304
f 322/334/300 336/340/304 337/343/307
f 315/335/301 314/333/299 329/342/306
f 315/335/301 329/342/306 330/344/308
f 323/336/302 322/334/300 337/343/307
f 323/336/302 337/343/307 338/345/309
f 316/322/288 315/335/301 330/344/308
f 316/322/288 330/344/308 331/346/310
f 309/324/290 86/347/32 324/348/311
f 343/349/1 323/336/302 338/345/309
f 317/323/289 316/322/288 331/346/310
f 317/323/289 331/346/310 332/350/312
f 310/325/291 309/324/290 324/348/311
f 310/325/291 324/348/311 325/351/313
f 318/326/292 317/323/289 332/350/312
f 318/326/292 332/350/312 333/352/314
f 311/327/293 310/325/291 325/351/313
f 311/327/293 325/351/313 326/353/315
f 319/328/294 318/326/292 333/352/314
f 319/328/294 333/352/314 334/354/316
f 312/329/295 311/327/293 326/353/315
f 312/329/295 326/353/315 327/355/317
f 320/330/296 319/328/294 334/354/316
f 320/330/296 334/354/316 335/339/303
f 313/331/297 312/329/295 327/355/317
f 313/331/297 327/355/317 328/341/305
f 325/351/313 324/348/311 371/356/318
f 325/351/313 371/356/318 372/357/319
f 333/352/314 332/350/312 379/358/320
f 333/352/314 379/358/320 380/359/321
f 326/353/315 325/351/313 372/357/319
f 326/353/315 372/357/319 373/360/322
f 334/354/316 333/352/314 380/359/321
f 334/354/316 380/359/321 381/361/323
f 327/355/317 326/353/315 373/360/322
f 327/355/317 373/360/322 374/362/324
f 335/339/303 334/354/316 381/361/323
f 335/339/303 381/361/323 382/363/325
f 328/341/305 327/355/317 374/362/324
f 328/341/305 374/362/324 375/364/326
f 336/340/304 335/339/303 382/363/325
f 336/340/304 382/363/325 383/365/327
f 329/342/306 328/341/305 375/364/326
f 329/342/306 375/364/326 376/366/328
f 337/343/307 336/340/304 383/365/327
f 337/343/307 383/365/327 384/367/329
f 330/344/308 329/342/306 376/366/328
f 330/344/308 376/366/328 377/368/330
f 338/345/309 337/343/307 384/367/329
f 338/345/309 384/367/329 385/369/331
f 331/346/310 330/344/308 377/368/330
f 331/346/310 377/368/330 378/370/332
f 324/348/311 85/371/32 371/356/318
f 342/372/1 338/345/309 385/369/331
f 332/350/312 331/346/310 378/370/332
f 332/350/312 378/370/332 379/358/320
f 376/366/328 375/364/326 390/373/333
f 376/366/328 390/373/333 391/374/334
f 384/367/329 383/365/327 398/375/335
f 384/367/329 398/375/335 399/376/336
f 377/368/330 376/366/328 391/374/334
f 377/368/330 391/374/334 392/377/337
f 385/369/331 384/367/329 399/376/336
f 385/369/331 399/376/336 400/378/338
f 378/370/332 377/368/330 392/377/337
f 378/370/332 392/377/337 393/379/339
f 371/356/318 84/380/32 386/381/340
f 341/382/1 385/369/331 400/378/338
f 379/358/320 378/370/332 393/379/339
f 379/358/320 393/379/339 394/383/341
f 372/357/319 371/356/318 386/381/340
f 372/357/319 386/381/340 387/384/342
f 380/359/321 379/358/320 394/383/341
f 380/359/321 394/383/341 395/385/343
f 373/360/322 372/357/319 387/384/342
f 373/360/322 387/384/342 388/386/344
f 381/361/323 380/359/321 395/385/343
f 381/361/323 395/385/343 396/387/345
f 374/362/324 373/360/322 388/386/344
f 374/362/324 388/386/344 389/388/346
f 382/363/325 381/361/323 396/387/345
f 382/363/325 396/387/345 397/389/347
f 375/364/326 374/362/324 389/388/346
f 375/364/326 389/388/346 390/373/333
f 383/365/327 382/363/325 397/389/347
f 383/365/327 397/389/347 398/375/335
f 395/385/343 394/383/341 409/390/348
f 395/385/343 409/390/348 410/391/349
f 388/386/344 387/384/342 402/392/350
f 388/386/344 402/392/350 403/393/351
f 396/387/345 395/385/343 410/391/349
f 396/387/345 410/391/349 411/394/352
f 389/388/346 388/386/344 403/393/351
f 389/388/346 403/393/351 404/395/353
f 397/389/347 396/387/345 411/394/352
f 397/389/347 411/394/352 412/396/354
f 390/373/333 389/388/346 404/395/353
f 390/373/333 404/395/353 405/397/355
f 398/375/335 397/389/347 412/396/354
f 398/375/335 412/396/354 413/398/356
f 391/374/334 390/373/333 405/397/355
f 391/374/334 405/397/355 406/399/357
f 399/376/336 398/375/335 413/398/356
f 399/376/336 413/398/356 414/400/358
f 392/377/337 391/374/334 406/399/357
f 392/377/337 406/399/357 407/401/359
f 400/378/338 399/376/336 414/400/358
f 400/378/338 414/400/358 415/402/360
f 393/379/339 392/377/337 407/401/359
f 393/379/339 407/401/359 408/403/361
f 386/381/340 83/404/32 401/405/362
f 340/406/1 400/378/338 415/402/360
f 394/383/341 393/379/339 408/403/361
f 394/383/341 408/403/361 409/390/348
f 387/384/342 386/381/340 401/405/362
f 387/384/342 401/405/362 402/392/350
f 414/400/358 413/398/356 440/407/363
f 414/400/358 440/407/363 442/408/364
f 407/401/359 406/399/357 426/409/365
f 407/401/359 426/409/365 428/410/366
f 415/402/360 414/400/358 442/408/364
f 415/402/360 442/408/364 444/411/367
f 408/403/361 407/401/359 428/410/366
f 408/403/361 428/410/366 430/412/368
f 401/405/362 82/413/32 416/414/369
f 339/415/1 415/402/360 444/411/367
f 409/390/348 408/403/361 430/412/368
f 409/390/348 430/412/368 432/416/370
f 402/392/350 401/405/362 416/414/369
f 402/392/350 416/414/369 418/417/371
f 410/391/349 409/390/348 432/416/370
f 410/391/349 432/416/370 434/418/372
f 403/393/351 402/392/350 418/417/371
f 403/393/351 418/417/371 420/419/373
f 411/394/352 410/391/349 434/418/372
f 411/394/352 434/418/372 436/420/374
f 404/395/353 403/393/351 420/419/373
f 404/395/353 420/419/373 422/421/375
f 412/396/354 411/394/352 436/420/374
f 412/396/354 436/420/374 438/422/376
f 405/397/355 404/395/353 422/421/375
f 405/397/355 422/421/375 424/423/377
f 413/398/356 412/396/354 438/422/376
f 413/398/356 438/422/376 440/407/363
f 406/399/357 405/397/355 424/423/377
f 406/399/357 424/423/377 426/409/365
f 437/424/374 435/425/372 455/426/378
f 437/424/374 455/426/378 456/427/379
f 423/428/375 421/429/373 448/430/380
f 423/428/375 448/430/380 449/431/381
f 439/432/376 437/424/374 456/427/379
f 439/432/376 456/427/379 457/433/382
f 425/434/377 423/428/375 449/431/381
f 425/434/377 449/431/381 450/435/383
f 441/436/363 439/432/376 457/433/382
f 441/436/363 457/433/382 458/437/384
f 427/438/365 425/434/377 450/435/383
f 427/438/365 450/435/383 451/439/385
f 443/440/364 441/436/363 458/437/384
f 443/440/364 458/437/384 459/441/386
f 429/442/366 427/438/365 451/439/385
f 429/442/366 451/439/385 452/443/387
f 445/444/367 443/440/364 459/441/386
f 445/444/367 459/441/386 460/445/388
f 431/446/368 429/442/366 452/443/387
f 431/446/368 452/443/387 453/447/389
f 417/448/369 113/449/32 446/450/390
f 370/451/1 445/444/367 460/445/388
f 433/452/370 431/446/368 453/447/389
f 433/452/370 453/447/389 454/453/391
f 419/454/371 417/448/369 446/450/390
f 419/454/371 446/450/390 447/455/392
f 435/425/372 433/452/370 454/453/391
f 435/425/372 454/453/391 455/426/378
f 421/429/373 419/454/371 447/455/392
f 421/429/373 447/455/392 448/430/380
f 460/445/388 459/441/386 474/456/393
f 460/445/388 474/456/393 475/457/394
f 453/447/389 452/443/387 467/458/395
f 453/447/389 467/458/395 468/459/396
f 446/450/390 112/460/32 461/461/397
f 369/462/1 460/445/388 475/457/394
f 454/453/391 453/447/389 468/459/396
f 454/453/391 468/459/396 469/463/398
f 447/455/392 446/450/390 461/461/397
f 447/455/392 461/461/397 462/464/399
f 455/426/378 454/453/391 469/463/398
f 455/426/378 469/463/398 470/465/400
f 448/430/380 447/455/392 462/464/399
f 448/430/380 462/464/399 463/466/401
f 456/427/379 455/426/378 470/465/400
f 456/427/379 470/465/400 471/467/402
f 449/431/381 448/430/380 463/466/401
f 449/431/381 463/466/401 464/468/403
f 457/433/382 456/427/379 471/467/402
f 457/433/382 471/467/402 472/469/404
f 450/435/383 449/431/381 464/468/403
f 450/435/383 464/468/403 465/470/405
f 458/437/384 457/433/382 472/469/404
f 458/437/384 472/469/404 473/471/406
f 451/439/385 450/435/383 465/470/405
f 451/439/385 465/470/405 466/472/407
f 459/441/386 458/437/384 473/471/406
f 459/441/386 473/471/406 474/456/393
f 452/443/387 451/439/385 466/472/407
f 452/443/387 466/472/407 467/458/395
f 464/468/403 463/466/401 478/473/408
f 464/468/403 478/473/408 479/474/409
f 472/469/404 471/467/402 486/475/410
f 472/469/404 486/475/410 487/476/411
f 465/470/405 464/468/403 479/474/409
f 465/470/405 479/474/409 480/477/412
f 473/471/406 472/469/404 487/476/411
f 473/471/406 487/476/411 488/478/413
f 466/472/407 465/470/405 480/477/412
f 466/472/407 480/477/412 481/479/414
f 474/456/393 473/471/406 488/478/413
f 474/456/393 488/478/413 489/480/415
f 467/458/395 466/472/407 481/479/414
f 467/458/395 481/479/414 482/481/416
f 475/457/394 474/456/393 489/480/415
f 475/457/394 489/480/415 490/482/417
f 468/459/396 467/458/395 482/481/416
f 468/459/396 482/481/416 483/483/418
f 461/461/397 111/484/32 476/485/419
f 368/486/1 475/457/394 490/482/417
f 469/463/398 468/459/396 483/483/418
f 469/463/398 483/483/418 484/487/420
f 462/464/399 461/461/397 476/485/419
f 462/464/399 476/485/419 477/488/421
f 470/465/400 469/463/398 484/487/420
f 470/465/400 484/487/420 485/489/422
f 463/466/401 462/464/399 477/488/421
f 463/466/401 477/488/421 478/473/408
f 471/467/402 470/465/400 485/489/422
f 471/467/402 485/489/422 486/475/410
f 483/483/418 482/481/416 497/490/423
f 483/483/418 497/490/423 498/491/424
f 476/485/419 110/492/32 491/493/425
f 367/494/1 490/482/417 505/495/426
f 484/487/420 483/483/418 498/491/424
f 484/487/420 498/491/424 499/496/427
f 477/488/421 476/485/419 491/493/425
f 477/488/421 491/493/425 492/497/428
f 485/489/422 484/487/420 499/496/427
f 485/489/422 499/496/427 500/498/429
f 478/473/408 477/488/421 492/497/428
f 478/473/408 492/497/428 493/499/430
f 486/475/410 485/489/422 500/498/429
f 486/475/410 500/498/429 501/500/431
f 479/474/409 478/473/408 493/499/430
f 479/474/409 493/499/430 494/501/432
f 487/476/411 486/475/410 501/500/431
f 487/476/411 501/500/431 502/502/433
f 480/477/412 479/474/409 494/501/432
f 480/477/412 494/501/432 495/503/434
f 488/478/413 487/476/411 502/502/433
f 488/478/413 502/502/433 503/504/435
f 481/479/414 480/477/412 495/503/434
f 481/479/414 495/503/434 496/505/436
f 489/480/415 488/478/413 503/504/435
f 489/480/415 503/504/435 504/506/437
f 482/481/416 481/479/414 496/505/436
f 482/481/416 496/505/436 497/490/423
f 490/482/417 489/480/415 504/506/437
f 490/482/417 504/506/437 505/495/426
f 502/502/433 501/500/431 516/507/438
f 502/502/433 516/507/438 517/508/439
f 495/503/434 494/501/432 509/509/440
f 495/503/434 509/509/440 510/510/441
f 503/504/435 502/502/433 517/508/439
f 503/504/435 517/508/439 518/511/442
f 496/505/436 495/503/434 510/510/441
f 496/505/436 510/510/441 511/512/443
f 504/506/437 503/504/435 518/511/442
f 504/506/437 518/511/442 519/513/444
f 497/490/423 496/505/436 511/512/443
f 497/490/423 511/512/443 512/514/445
f 505/495/426 504/506/437 519/513/444
f 505/495/426 519/513/444 520/515/446
f 498/491/424 497/490/423 512/514/445
f 498/491/424 512/514/445 513/516/447
f 491/493/425 109/517/32 506/518/448
f 366/519/1 505/495/426 520/515/446
f 499/496/427 498/491/424 513/516/447
f 499/496/427 513/516/447 514/520/449
f 492/497/428 491/493/425 506/518/448
f 492/497/428 506/518/448 507/521/450
f 500/498/429 499/496/427 514/520/449
f 500/498/429 514/520/449 515/522/451
f 493/499/430 492/497/428 507/521/450
f 493/499/430 507/521/450 508/523/452
f 501/500/431 500/498/429 515/522/451
f 501/500/431 515/522/451 516/507/438
f 494/501/432 493/499/430 508/523/452
f 494/501/432 508/523/452 509/509/440
f 506/518/448 108/524/32 521/525/453
f 365/526/1 520/515/446 535/527/454
f 514/520/449 513/516/447 528/528/455
f 514/520/449 528/528/455 529/529/456
f 507/521/450 506/518/448 521/525/453
f 507/521/450 521/525/453 522/530/457
f 515/522/451 514/520/449 529/529/456
f 515/522/451 529/529/456 530/531/458
f 508/523/452 507/521/450 522/530/457
f 508/523/452 522/530/457 523/532/459
f 516/507/438 515/522/451 530/531/458
f 516/507/438 530/531/458 531/533/460
f 509/509/440 508/523/452 523/532/459
f 509/509/440 523/532/459 524/534/461
f 517/508/439 516/507/438 531/533/460
f 517/508/439 531/533/460 532/535/462
f 510/510/441 509/509/440 524/534/461
f 510/510/441 524/534/461 525/536/463
f 518/511/442 517/508/439 532/535/462
f 518/511/442 532/535/462 533/537/464
f 511/512/443 510/510/441 525/536/463
f 511/512/443 525/536/463 526/538/465
f 519/513/444 518/511/442 533/537/464
f 519/513/444 533/537/464 534/539/466
f 512/514/445 511/512/443 526/538/465
f 512/514/445 526/538/465 527/540/467
f 520/515/446 519/513/444 534/539/466
f 520/515/446 534/539/466 535/527/454
f 513/516/447 512/514/445 527/540/467
f 513/516/447 527/540/467 528/528/455
f 525/536/463 524/534/461 539/541/468
f 525/536/463 539/541/468 540/542/469
f 533/537/464 532/535/462 547/543/470
f 533/537/464 547/543/470 548/544/471
f 526/538/465 525/536/463 540/542/469
f 526/538/465 540/542/469 541/545/472
f 534/539/466 533/537/464 548/544/471
f 534/539/466 548/544/471 549/546/473
f 527/540/467 526/538/465 541/545/472
f 527/540/467 541/545/472 542/547/474
f 535/527/454 534/539/466 549/546/473
f 535/527/454 549/546/473 550/548/475
f 528/528/455 527/540/467 542/547/474
f 528/528/455 542/547/474 543/549/476
f 521/525/453 107/550/32 536/551/477
f 364/552/1 535/527/454 550/548/475
f 529/529/456 528/528/455 543/549/476
f 529/529/456 543/549/476 544/553/478
f 522/530/457 521/525/453 536/551/477
f 522/530/457 536/551/477 537/554/479
f 530/531/458 529/529/456 544/553/478
f 530/531/458 544/553/478 545/555/480
f 523/532/459 522/530/457 537/554/479
f 523/532/459 537/554/479 538/556/481
f 531/533/460 530/531/458 545/555/480
f 531/533/460 545/555/480 546/557/482
f 524/534/461 523/532/459 538/556/481
f 524/534/461 538/556/481 539/541/468
f 532/535/462 531/533/460 546/557/482
f 532/535/462 546/557/482 547/543/470
f 544/553/478 543/549/476 4/5/5
f 544/553/478 4/5/5 5/4/4
f 537/554/479 536/551/477 551/9/9
f 537/554/479 551/9/9 552/8/8
f 545/555/480 544/553/478 5/4/4
f 545/555/480 5/4/4 555/12/12
f 538/556/481 537/554/479 552/8/8
f 538/556/481 552/8/8 1/14/14
f 546/557/482 545/555/480 555/12/12
f 546/557/482 555/12/12 6/16/16
f 539/541/468 538/556/481 1/14/14
f 539/541/468 1/14/14 553/18/18
f 547/543/470 546/557/482 6/16/16
f 547/543/470 6/16/16 556/20/20
f 540/542/469 539/541/468 553/18/18
f 540/542/469 553/18/18 2/22/22
f 548/544/471 547/543/470 556/20/20
f 548/544/471 556/20/20 557/24/24
f 541/545/472 540/542/469 2/22/22
f 541/545/472 2/22/22 554/26/26
f 549/546/473 548/544/471 557/24/24
f 549/546/473 557/24/24 558/28/28
f 542/547/474 541/545/472 554/26/26
f 542/547/474 554/26/26 3/30/30
f 550/548/475 549/546/473 558/28/28
f 550/548/475 558/28/28 559/2/2
f 543/549/476 542/547/474 3/30/30
f 543/549/476 3/30/30 4/5/5
f 536/551/477 106/558/32 551/9/9
f 363/559/1 550/548/475 559/2/2
